<?xml version="1.0" encoding="utf-8" standalone="no"?>
<!DOCTYPE svg PUBLIC "-//W3C//DTD SVG 1.1//EN"
  "http://www.w3.org/Graphics/SVG/1.1/DTD/svg11.dtd">
<!-- Created with matplotlib (http://matplotlib.org/) -->
<svg height="372pt" version="1.1" viewBox="0 0 503 372" width="503pt" xmlns="http://www.w3.org/2000/svg" xmlns:xlink="http://www.w3.org/1999/xlink">
 <defs>
  <style type="text/css">
*{stroke-linecap:butt;stroke-linejoin:round;}
  </style>
 </defs>
 <g id="figure_1">
  <g id="patch_1">
   <path d="
M0 372.184
L503.084 372.184
L503.084 0
L0 0
z
" style="fill:#ffffff;"/>
  </g>
  <g id="axes_1">
   <g id="patch_2">
    <path d="
M26.3515 349.92
L205.271 349.92
L205.271 145.8
L26.3515 145.8
z
" style="fill:#ffffff;"/>
   </g>
   <g id="PolyCollection_1">
    <defs>
     <path d="
M26.3619 -226.384
L26.3515 -226.384
L26.3515 -225.957
L26.3515 -225.53
L26.3515 -225.102
L26.3515 -224.675
L26.3515 -224.247
L26.3515 -223.82
L26.3515 -223.393
L26.3515 -222.965
L26.3515 -222.538
L26.3515 -222.11
L26.3515 -221.683
L26.3515 -221.256
L26.3515 -220.828
L26.3515 -220.401
L26.3515 -219.974
L26.3515 -219.546
L26.3515 -219.119
L26.3515 -218.691
L26.3515 -218.264
L26.3515 -217.837
L26.3515 -217.409
L26.3515 -216.982
L26.3515 -216.554
L26.3515 -216.127
L26.3515 -215.7
L26.3515 -215.272
L26.3515 -214.845
L26.3515 -214.418
L26.3515 -213.99
L26.3515 -213.563
L26.3515 -213.135
L26.3515 -212.708
L26.3515 -212.281
L26.3515 -211.853
L26.3515 -211.426
L26.3515 -210.998
L26.3515 -210.571
L26.3515 -210.144
L26.3515 -209.716
L26.3515 -209.289
L26.3515 -208.861
L26.3515 -208.434
L26.3515 -208.007
L26.3515 -207.579
L26.3515 -207.152
L26.3515 -206.725
L26.3515 -206.297
L26.3515 -205.87
L26.3515 -205.442
L26.3515 -205.015
L26.3515 -204.588
L26.3515 -204.16
L26.3515 -203.733
L26.3515 -203.305
L26.3515 -202.878
L26.3515 -202.451
L26.3515 -202.023
L26.3515 -201.596
L26.3515 -201.169
L26.3515 -200.741
L26.3515 -200.314
L26.3515 -199.886
L26.3515 -199.459
L26.3515 -199.032
L26.3515 -198.604
L26.3515 -198.177
L26.3515 -197.749
L26.3515 -197.322
L26.3515 -196.895
L26.3515 -196.467
L26.3515 -196.04
L26.3515 -195.612
L26.3515 -195.185
L26.3515 -194.758
L26.3515 -194.33
L26.3515 -193.903
L26.3515 -193.476
L26.3515 -193.048
L26.3515 -192.621
L26.3515 -192.193
L26.3515 -191.766
L26.3515 -191.339
L26.3515 -190.911
L26.3515 -190.484
L26.3515 -190.056
L26.3515 -189.629
L26.3515 -189.202
L26.3515 -188.774
L26.3515 -188.347
L26.3515 -187.92
L26.3515 -187.492
L26.3515 -187.065
L26.3515 -186.637
L26.3515 -186.21
L26.3515 -185.783
L26.3515 -185.355
L26.3515 -184.928
L26.3515 -184.5
L26.3515 -184.073
L26.3515 -183.646
L26.3515 -183.218
L26.3515 -182.791
L26.3515 -182.364
L26.3515 -181.936
L26.3515 -181.509
L26.3515 -181.081
L26.3515 -180.654
L26.3515 -180.227
L26.3515 -179.799
L26.3515 -179.372
L26.3515 -178.944
L26.3515 -178.517
L26.3515 -178.09
L26.3515 -177.662
L26.3515 -177.235
L26.3515 -176.807
L26.3515 -176.38
L26.3515 -175.953
L26.3515 -175.525
L26.3515 -175.098
L26.3515 -174.671
L26.3515 -174.243
L26.3515 -173.816
L26.3515 -173.388
L26.3515 -172.961
L26.3515 -172.534
L26.3515 -172.106
L26.3515 -171.679
L26.3515 -171.251
L26.3515 -170.824
L26.3515 -170.397
L26.3515 -169.969
L26.3515 -169.542
L26.3515 -169.115
L26.3515 -168.687
L26.3515 -168.26
L26.3515 -167.832
L26.3515 -167.405
L26.3515 -166.978
L26.3515 -166.55
L26.3515 -166.123
L26.3515 -165.695
L26.3515 -165.268
L26.3515 -164.841
L26.3515 -164.413
L26.3515 -163.986
L26.3515 -163.558
L26.3515 -163.131
L26.3515 -162.704
L26.3515 -162.276
L26.3515 -161.849
L26.3515 -161.422
L26.3515 -160.994
L26.3515 -160.567
L26.3515 -160.139
L26.3515 -159.712
L26.3515 -159.285
L26.3515 -158.857
L26.3515 -158.43
L26.3515 -158.002
L26.3515 -157.575
L26.3515 -157.148
L26.3515 -156.72
L26.3515 -156.293
L26.3515 -155.866
L26.3515 -155.438
L26.3515 -155.011
L26.3515 -154.583
L26.3515 -154.156
L26.3515 -153.729
L26.3515 -153.301
L26.3515 -152.874
L26.3515 -152.446
L26.3515 -152.019
L26.3515 -151.592
L26.3515 -151.164
L26.3515 -150.737
L26.3515 -150.309
L26.3515 -149.882
L26.3515 -149.455
L26.3515 -149.027
L26.3515 -148.6
L26.3515 -148.173
L26.3515 -147.745
L26.3515 -147.318
L26.3515 -146.89
L26.3515 -146.463
L26.3515 -146.036
L26.3515 -145.608
L26.3515 -145.181
L26.3515 -144.753
L26.3515 -144.326
L26.3515 -143.899
L26.3515 -143.471
L26.3515 -143.044
L26.3515 -142.617
L26.3515 -142.189
L26.3515 -141.762
L26.3515 -141.334
L94.6144 -141.334
L94.6144 -141.334
L93.2793 -141.762
L91.9541 -142.189
L90.6392 -142.617
L89.3352 -143.044
L88.0425 -143.471
L86.7613 -143.899
L85.4922 -144.326
L84.2355 -144.753
L82.9915 -145.181
L81.7605 -145.608
L80.543 -146.036
L79.3391 -146.463
L78.1493 -146.89
L76.9736 -147.318
L75.8124 -147.745
L74.666 -148.173
L73.5345 -148.6
L72.4181 -149.027
L71.3171 -149.455
L70.2315 -149.882
L69.1616 -150.309
L68.1075 -150.737
L67.0693 -151.164
L66.0471 -151.592
L65.041 -152.019
L64.0512 -152.446
L63.0776 -152.874
L62.1203 -153.301
L61.1794 -153.729
L60.2549 -154.156
L59.3468 -154.583
L58.455 -155.011
L57.5797 -155.438
L56.7208 -155.866
L55.8782 -156.293
L55.0519 -156.72
L54.2419 -157.148
L53.448 -157.575
L52.6702 -158.002
L51.9085 -158.43
L51.1627 -158.857
L50.4327 -159.285
L49.7184 -159.712
L49.0197 -160.139
L48.3365 -160.567
L47.6686 -160.994
L47.0159 -161.422
L46.3783 -161.849
L45.7556 -162.276
L45.1475 -162.704
L44.5541 -163.131
L43.975 -163.558
L43.4102 -163.986
L42.8593 -164.413
L42.3224 -164.841
L41.799 -165.268
L41.2892 -165.695
L40.7926 -166.123
L40.3091 -166.55
L39.8384 -166.978
L39.3804 -167.405
L38.9349 -167.832
L38.5016 -168.26
L38.0803 -168.687
L37.6708 -169.115
L37.273 -169.542
L36.8865 -169.969
L36.5112 -170.397
L36.1468 -170.824
L35.7932 -171.251
L35.4501 -171.679
L35.1173 -172.106
L34.7946 -172.534
L34.4818 -172.961
L34.1786 -173.388
L33.8849 -173.816
L33.6004 -174.243
L33.325 -174.671
L33.0583 -175.098
L32.8003 -175.525
L32.5506 -175.953
L32.3092 -176.38
L32.0757 -176.807
L31.8501 -177.235
L31.632 -177.662
L31.4213 -178.09
L31.2179 -178.517
L31.0214 -178.944
L30.8318 -179.372
L30.6488 -179.799
L30.4723 -180.227
L30.302 -180.654
L30.1379 -181.081
L29.9796 -181.509
L29.8272 -181.936
L29.6803 -182.364
L29.5388 -182.791
L29.4026 -183.218
L29.2715 -183.646
L29.1453 -184.073
L29.024 -184.5
L28.9072 -184.928
L28.795 -185.355
L28.6871 -185.783
L28.5835 -186.21
L28.4839 -186.637
L28.3882 -187.065
L28.2964 -187.492
L28.2082 -187.92
L28.1236 -188.347
L28.0425 -188.774
L27.9646 -189.202
L27.89 -189.629
L27.8185 -190.056
L27.7499 -190.484
L27.6842 -190.911
L27.6213 -191.339
L27.5611 -191.766
L27.5034 -192.193
L27.4482 -192.621
L27.3954 -193.048
L27.3449 -193.476
L27.2966 -193.903
L27.2504 -194.33
L27.2063 -194.758
L27.1641 -195.185
L27.1239 -195.612
L27.0854 -196.04
L27.0487 -196.467
L27.0137 -196.895
L26.9802 -197.322
L26.9483 -197.749
L26.9179 -198.177
L26.8889 -198.604
L26.8613 -199.032
L26.8349 -199.459
L26.8098 -199.886
L26.786 -200.314
L26.7632 -200.741
L26.7415 -201.169
L26.7209 -201.596
L26.7013 -202.023
L26.6827 -202.451
L26.665 -202.878
L26.6481 -203.305
L26.6321 -203.733
L26.6169 -204.16
L26.6024 -204.588
L26.5887 -205.015
L26.5757 -205.442
L26.5633 -205.87
L26.5516 -206.297
L26.5404 -206.725
L26.5299 -207.152
L26.5199 -207.579
L26.5104 -208.007
L26.5014 -208.434
L26.4929 -208.861
L26.4848 -209.289
L26.4772 -209.716
L26.47 -210.144
L26.4631 -210.571
L26.4566 -210.998
L26.4505 -211.426
L26.4447 -211.853
L26.4393 -212.281
L26.4341 -212.708
L26.4292 -213.135
L26.4246 -213.563
L26.4202 -213.99
L26.4161 -214.418
L26.4123 -214.845
L26.4086 -215.272
L26.4051 -215.7
L26.4019 -216.127
L26.3988 -216.554
L26.3959 -216.982
L26.3932 -217.409
L26.3906 -217.837
L26.3882 -218.264
L26.3859 -218.691
L26.3838 -219.119
L26.3817 -219.546
L26.3798 -219.974
L26.378 -220.401
L26.3764 -220.828
L26.3748 -221.256
L26.3733 -221.683
L26.3719 -222.11
L26.3706 -222.538
L26.3694 -222.965
L26.3682 -223.393
L26.3671 -223.82
L26.3661 -224.247
L26.3651 -224.675
L26.3642 -225.102
L26.3634 -225.53
L26.3626 -225.957
L26.3619 -226.384
z
" id="m149c3c1ad6" style="stroke:#4682b4;stroke-opacity:0.2;"/>
    </defs>
    <g clip-path="url(#p4f19af1170)">
     <use style="fill:#4682b4;fill-opacity:0.2;stroke:#4682b4;stroke-opacity:0.2;" x="0.0" xlink:href="#m149c3c1ad6" y="372.184358874"/>
    </g>
   </g>
   <g id="line2d_1">
    <path clip-path="url(#p4f19af1170)" d="
M26.3619 145.8
L26.4912 163.237
L26.7632 171.443
L27.1239 176.572
L27.5969 180.675
L28.3145 184.778
L29.072 187.855
L30.0739 190.932
L31.3801 194.009
L32.4531 196.061
L33.7131 198.112
L35.1831 200.164
L36.8865 202.215
L38.8472 204.267
L41.089 206.318
L43.6344 208.369
L46.5046 210.421
L49.7184 212.472
L53.2911 214.524
L57.2342 216.575
L61.5538 218.627
L66.2502 220.678
L73.9853 223.755
L82.4975 226.833
L91.6903 229.91
L104.755 234.013
L141.472 245.296
L150.429 248.373
L155.861 250.424
L160.765 252.476
L165.065 254.527
L168.691 256.579
L171.584 258.63
L172.74 259.656
L173.696 260.682
L174.448 261.707
L174.993 262.733
L175.327 263.759
L175.451 264.785
L175.363 265.81
L175.063 266.836
L174.553 267.862
L173.836 268.887
L172.914 269.913
L171.79 270.939
L170.471 271.965
L167.266 274.016
L163.351 276.068
L158.791 278.119
L153.657 280.17
L148.029 282.222
L138.845 285.299
L125.674 289.402
L95.4201 298.634
L85.9984 301.711
L77.2076 304.788
L69.1616 307.865
L61.9308 310.942
L57.5797 312.994
L53.6055 315.045
L50.0022 317.097
L46.7591 319.148
L43.8609 321.2
L41.2892 323.251
L39.023 325.303
L37.0397 327.354
L35.3158 329.405
L33.8273 331.457
L32.5506 333.508
L31.4629 335.56
L30.1379 338.637
L29.1207 341.714
L28.351 344.791
L27.6213 348.894
L27.481 349.92
L27.481 349.92" style="fill:none;stroke:#4682b4;stroke-linecap:square;stroke-width:2.5;"/>
   </g>
   <g id="line2d_2">
    <path clip-path="url(#p4f19af1170)" d="
M26.3525 145.8
L26.4683 175.546
L26.7006 183.752
L27.099 189.906
L27.5587 194.009
L28.2572 198.112
L28.9955 201.189
L29.9734 204.267
L31.2499 207.344
L32.2997 209.395
L33.5335 211.447
L34.9741 213.498
L36.645 215.55
L38.5701 217.601
L40.773 219.652
L43.2767 221.704
L46.1025 223.755
L49.2694 225.807
L52.7936 227.858
L56.6868 229.91
L60.956 231.961
L65.6024 234.013
L73.2652 237.09
L81.7116 240.167
L90.8489 243.244
L103.863 247.347
L140.637 258.63
L149.669 261.707
L155.165 263.759
L160.145 265.81
L164.529 267.862
L168.248 269.913
L171.242 271.965
L172.451 272.99
L173.461 274.016
L174.268 275.042
L174.868 276.068
L175.259 277.093
L175.439 278.119
L175.407 279.145
L175.163 280.17
L174.71 281.196
L174.047 282.222
L173.179 283.248
L172.109 284.273
L170.841 285.299
L167.735 287.351
L163.912 289.402
L159.434 291.453
L154.372 293.505
L148.805 295.556
L139.691 298.634
L126.573 302.736
L93.0666 312.994
L83.7861 316.071
L75.1686 319.148
L67.317 322.225
L60.2915 325.303
L56.0789 327.354
L52.2417 329.405
L48.772 331.457
L45.6573 333.508
L42.8811 335.56
L40.424 337.611
L38.2642 339.663
L36.3788 341.714
L34.7439 343.766
L33.3358 345.817
L32.131 347.869
L31.107 349.92
L31.107 349.92" style="fill:none;opacity:0.3;stroke:#4682b4;stroke-linecap:square;stroke-width:2.5;"/>
   </g>
   <g id="line2d_3">
    <path clip-path="url(#p4f19af1170)" d="
M26.3516 145.8
L26.4489 187.855
L26.6886 197.086
L27.075 203.241
L27.5216 207.344
L28.2013 211.447
L28.921 214.524
L29.8753 217.601
L31.1227 220.678
L32.1496 222.73
L33.3576 224.781
L34.7692 226.833
L36.4081 228.884
L38.2979 230.935
L40.4624 232.987
L42.9247 235.038
L45.7064 237.09
L48.8269 239.141
L52.3026 241.193
L56.1461 243.244
L60.3649 245.296
L64.9612 247.347
L72.5513 250.424
L80.9311 253.502
L90.0119 256.579
L102.973 260.682
L142.919 272.99
L151.739 276.068
L157.055 278.119
L161.825 280.17
L165.973 282.222
L169.433 284.273
L172.148 286.325
L173.212 287.351
L174.073 288.376
L174.728 289.402
L175.175 290.428
L175.411 291.453
L175.436 292.479
L175.249 293.505
L174.851 294.531
L174.244 295.556
L173.431 296.582
L172.414 297.608
L171.199 298.634
L168.192 300.685
L164.461 302.736
L160.066 304.788
L155.078 306.839
L149.573 308.891
L140.532 311.968
L127.47 316.071
L90.744 327.354
L81.6137 330.431
L73.1756 333.508
L65.5219 336.586
L60.8818 338.637
L56.6188 340.688
L52.7318 342.74
L49.2138 344.791
L46.0526 346.843
L43.2324 348.894
L41.9442 349.92
L41.9442 349.92" style="fill:none;opacity:0.1;stroke:#4682b4;stroke-linecap:square;stroke-width:2.5;"/>
   </g>
   <g id="patch_3">
    <path d="
M26.3515 349.92
L205.271 349.92" style="fill:none;stroke:#000000;stroke-linecap:square;stroke-linejoin:miter;stroke-width:0.5;"/>
   </g>
   <g id="patch_4">
    <path d="
M26.3515 349.92
L26.3515 145.8" style="fill:none;stroke:#000000;stroke-linecap:square;stroke-linejoin:miter;stroke-width:0.5;"/>
   </g>
   <g id="patch_5">
    <path d="
M26.3515 145.8
L205.271 145.8" style="fill:none;stroke:#000000;stroke-linecap:square;stroke-linejoin:miter;stroke-width:0.5;"/>
   </g>
   <g id="patch_6">
    <path d="
M205.271 349.92
L205.271 145.8" style="fill:none;stroke:#000000;stroke-linecap:square;stroke-linejoin:miter;stroke-width:0.5;"/>
   </g>
   <g id="matplotlib.axis_1">
    <g id="xtick_1">
     <g id="line2d_4">
      <defs>
       <path d="
M0 0
L0 -4" id="mc7db9fdffb" style="stroke:#000000;stroke-width:0.5;"/>
      </defs>
      <g>
       <use style="stroke:#000000;stroke-width:0.5;" x="26.3514796807" xlink:href="#mc7db9fdffb" y="349.92"/>
      </g>
     </g>
     <g id="line2d_5">
      <defs>
       <path d="
M0 0
L0 4" id="m5a7d422ac3" style="stroke:#000000;stroke-width:0.5;"/>
      </defs>
      <g>
       <use style="stroke:#000000;stroke-width:0.5;" x="26.3514796807" xlink:href="#m5a7d422ac3" y="145.8"/>
      </g>
     </g>
     <g id="text_1">
      <!-- $0.0$ -->
      <defs>
       <path d="
M42 31.6406
C42 37.75 41.9062 48.125 37.7031 56.1094
C34 63.1094 28.0938 65.5938 22.9062 65.5938
C18.0938 65.5938 12 63.4062 8.20312 56.2031
C4.20312 48.7188 3.79688 39.4375 3.79688 31.6406
C3.79688 25.9531 3.90625 17.2812 7 9.67188
C11.2969 -0.609375 19 -2 22.9062 -2
C27.5 -2 34.5 -0.109375 38.5938 9.375
C41.5938 16.2812 42 24.3594 42 31.6406
M22.9062 -0.40625
C16.5 -0.40625 12.7031 5.07812 11.2969 12.6875
C10.2031 18.5625 10.2031 27.1562 10.2031 32.75
C10.2031 40.4375 10.2031 46.8281 11.5 52.9219
C13.4062 61.3906 19 64 22.9062 64
C27 64 32.2969 61.2969 34.2031 53.125
C35.5 47.4375 35.5938 40.7344 35.5938 32.75
C35.5938 26.25 35.5938 18.2656 34.4062 12.375
C32.2969 1.48438 26.4062 -0.40625 22.9062 -0.40625" id="CMR17-48"/>
       <path d="
M18.4062 4.79688
C18.4062 7.6875 16 9.67188 13.5938 9.67188
C10.7031 9.67188 8.70312 7.28125 8.70312 4.89062
C8.70312 2 11.0938 0 13.5 0
C16.4062 0 18.4062 2.39062 18.4062 4.79688" id="CMMI12-58"/>
      </defs>
      <g transform="translate(18.8726588039 362.437984317)scale(0.12 -0.12)">
       <use transform="scale(0.9962640099626402)" xlink:href="#CMR17-48"/>
       <use transform="translate(45.69047711706103 0.0)scale(0.9962640099626402)" xlink:href="#CMMI12-58"/>
       <use transform="translate(72.78765420688046 0.0)scale(0.9962640099626402)" xlink:href="#CMR17-48"/>
      </g>
     </g>
    </g>
    <g id="xtick_2">
     <g id="line2d_6">
      <g>
       <use style="stroke:#000000;stroke-width:0.5;" x="56.2505417405" xlink:href="#mc7db9fdffb" y="349.92"/>
      </g>
     </g>
     <g id="line2d_7">
      <g>
       <use style="stroke:#000000;stroke-width:0.5;" x="56.2505417405" xlink:href="#m5a7d422ac3" y="145.8"/>
      </g>
     </g>
     <g id="text_2">
      <!-- $0.1$ -->
      <defs>
       <path d="
M26.5938 63.4062
C26.5938 65.5 26.5 65.5 25.0938 65.5
C21.2031 61.1875 15.2969 59.7969 9.70312 59.7969
C9.40625 59.7969 8.90625 59.7969 8.79688 59.5
C8.70312 59.2969 8.70312 59.0938 8.70312 57
C11.7969 57 17 57.5938 21 59.9844
L21 7.20312
C21 3.6875 20.7969 2.5 12.2031 2.5
L9.20312 2.5
L9.20312 0
C14 0 19 0 23.7969 0
C28.5938 0 33.5938 0 38.4062 0
L38.4062 2.5
L35.4062 2.5
C26.7969 2.5 26.5938 3.59375 26.5938 7.15625
z
" id="CMR17-49"/>
      </defs>
      <g transform="translate(48.7717208637 362.437984317)scale(0.12 -0.12)">
       <use transform="scale(0.9962640099626402)" xlink:href="#CMR17-48"/>
       <use transform="translate(45.69047711706103 0.0)scale(0.9962640099626402)" xlink:href="#CMMI12-58"/>
       <use transform="translate(72.78765420688046 0.0)scale(0.9962640099626402)" xlink:href="#CMR17-49"/>
      </g>
     </g>
    </g>
    <g id="xtick_3">
     <g id="line2d_8">
      <g>
       <use style="stroke:#000000;stroke-width:0.5;" x="86.1496038003" xlink:href="#mc7db9fdffb" y="349.92"/>
      </g>
     </g>
     <g id="line2d_9">
      <g>
       <use style="stroke:#000000;stroke-width:0.5;" x="86.1496038003" xlink:href="#m5a7d422ac3" y="145.8"/>
      </g>
     </g>
     <g id="text_3">
      <!-- $0.2$ -->
      <defs>
       <path d="
M41.7031 15.4531
L39.9062 15.4531
C38.9062 8.375 38.0938 7.17188 37.7031 6.5625
C37.2031 5.76562 30 5.76562 28.5938 5.76562
L9.40625 5.76562
C13 9.67188 20 16.75 28.5 24.9531
C34.5938 30.7344 41.7031 37.5312 41.7031 47.4219
C41.7031 59.2188 32.2969 66 21.7969 66
C10.7969 66 4.09375 56.3125 4.09375 47.3438
C4.09375 43.4375 7 42.9375 8.20312 42.9375
C9.20312 42.9375 12.2031 43.5469 12.2031 47.0312
C12.2031 50.1094 9.59375 51 8.20312 51
C7.59375 51 7 50.9062 6.59375 50.7031
C8.5 59.2188 14.2969 63.4062 20.4062 63.4062
C29.0938 63.4062 34.7969 56.5156 34.7969 47.4219
C34.7969 38.7344 29.7031 31.25 24 24.75
L4.09375 2.28125
L4.09375 0
L39.2969 0
z
" id="CMR17-50"/>
      </defs>
      <g transform="translate(78.6707829235 362.437984317)scale(0.12 -0.12)">
       <use transform="scale(0.9962640099626402)" xlink:href="#CMR17-48"/>
       <use transform="translate(45.69047711706103 0.0)scale(0.9962640099626402)" xlink:href="#CMMI12-58"/>
       <use transform="translate(72.78765420688046 0.0)scale(0.9962640099626402)" xlink:href="#CMR17-50"/>
      </g>
     </g>
    </g>
    <g id="xtick_4">
     <g id="line2d_10">
      <g>
       <use style="stroke:#000000;stroke-width:0.5;" x="116.04866586" xlink:href="#mc7db9fdffb" y="349.92"/>
      </g>
     </g>
     <g id="line2d_11">
      <g>
       <use style="stroke:#000000;stroke-width:0.5;" x="116.04866586" xlink:href="#m5a7d422ac3" y="145.8"/>
      </g>
     </g>
     <g id="text_4">
      <!-- $0.3$ -->
      <defs>
       <path d="
M22.0938 33.7031
C31 33.7031 34.9062 25.9688 34.9062 17.0312
C34.9062 5 28.5 0.390625 22.7031 0.390625
C17.4062 0.390625 8.79688 3.03125 6.09375 10.8281
C6.59375 10.625 7.09375 10.625 7.59375 10.625
C10 10.625 11.7969 12.2188 11.7969 14.8125
C11.7969 17.7031 9.59375 19 7.59375 19
C5.90625 19 3.29688 18.2031 3.29688 14.4688
C3.29688 5.23438 12.2969 -2 22.9062 -2
C34 -2 42.5 6.71875 42.5 16.9531
C42.5 26.6719 34.5 33.6875 25 34.7969
C32.5938 36.375 39.9062 43.0625 39.9062 52.0156
C39.9062 59.6875 32 65.2969 23 65.2969
C13.9062 65.2969 5.90625 59.8281 5.90625 52.0156
C5.90625 48.5938 8.5 48 9.79688 48
C11.9062 48 13.7031 49.2969 13.7031 51.8906
C13.7031 54.4688 11.9062 55.7656 9.79688 55.7656
C9.40625 55.7656 8.90625 55.7656 8.5 55.5781
C11.4062 61.8594 19.2969 63 22.7969 63
C26.2969 63 32.9062 61.3281 32.9062 51.875
C32.9062 49.1094 32.5 44.1875 29.0938 39.8438
C26.0938 36 22.7031 36 19.4062 35.6875
C18.9062 35.6875 16.5938 35.4531 16.2031 35.4531
C15.5 35.3594 15.0938 35.2656 15.0938 34.5
C15.0938 33.7969 15.2031 33.7031 17.2031 33.7031
z
" id="CMR17-51"/>
      </defs>
      <g transform="translate(108.569844983 362.437984317)scale(0.12 -0.12)">
       <use transform="scale(0.9962640099626402)" xlink:href="#CMR17-48"/>
       <use transform="translate(45.69047711706103 0.0)scale(0.9962640099626402)" xlink:href="#CMMI12-58"/>
       <use transform="translate(72.78765420688046 0.0)scale(0.9962640099626402)" xlink:href="#CMR17-51"/>
      </g>
     </g>
    </g>
    <g id="xtick_5">
     <g id="line2d_12">
      <g>
       <use style="stroke:#000000;stroke-width:0.5;" x="145.94772792" xlink:href="#mc7db9fdffb" y="349.92"/>
      </g>
     </g>
     <g id="line2d_13">
      <g>
       <use style="stroke:#000000;stroke-width:0.5;" x="145.94772792" xlink:href="#m5a7d422ac3" y="145.8"/>
      </g>
     </g>
     <g id="text_5">
      <!-- $0.4$ -->
      <defs>
       <path d="
M33.5938 64.4062
C33.5938 66.5 33.5 66.5 31.7031 66.5
L2 19.5938
L2 17
L27.7969 17
L27.7969 7.14062
C27.7969 3.5 27.5938 2.5 20.5938 2.5
L18.7031 2.5
L18.7031 0
C21.9062 0 27.2969 0 30.7031 0
C34.0938 0 39.5 0 42.7031 0
L42.7031 2.5
L40.7969 2.5
C33.7969 2.5 33.5938 3.5 33.5938 7.14062
L33.5938 17
L43.7969 17
L43.7969 19.5938
L33.5938 19.5938
z

M28.0938 57.8594
L28.0938 19.5938
L4 19.5938
z
" id="CMR17-52"/>
      </defs>
      <g transform="translate(138.468907043 362.437984317)scale(0.12 -0.12)">
       <use transform="scale(0.9962640099626402)" xlink:href="#CMR17-48"/>
       <use transform="translate(45.69047711706103 0.0)scale(0.9962640099626402)" xlink:href="#CMMI12-58"/>
       <use transform="translate(72.78765420688046 0.0)scale(0.9962640099626402)" xlink:href="#CMR17-52"/>
      </g>
     </g>
    </g>
    <g id="xtick_6">
     <g id="line2d_14">
      <g>
       <use style="stroke:#000000;stroke-width:0.5;" x="175.84678998" xlink:href="#mc7db9fdffb" y="349.92"/>
      </g>
     </g>
     <g id="line2d_15">
      <g>
       <use style="stroke:#000000;stroke-width:0.5;" x="175.84678998" xlink:href="#m5a7d422ac3" y="145.8"/>
      </g>
     </g>
     <g id="text_6">
      <!-- $0.5$ -->
      <defs>
       <path d="
M11.4062 57.6875
C12.4062 57.2812 16.5 56 20.7031 56
C30 56 35.0938 61.1094 38 64.0625
C38 64.9531 38 65.5 37.4062 65.5
C37.2969 65.5 37.0938 65.5 36.2969 65.0469
C32.7969 63.4062 28.7031 62.0781 23.7031 62.0781
C20.7031 62.0781 16.2031 62.4844 11.2969 64.6719
C10.2031 65.1719 10 65.1719 9.90625 65.1719
C9.40625 65.1719 9.29688 65.0625 9.29688 63.0781
L9.29688 34.4219
C9.29688 32.6406 9.29688 32.1406 10.2969 32.1406
C10.7969 32.1406 11 32.3438 11.5 33.0312
C14.7031 37.5156 19.0938 39.4062 24.0938 39.4062
C27.5938 39.4062 35.0938 37.2188 35.0938 20.1406
C35.0938 16.9531 35.0938 11.1719 32.0938 6.57812
C29.5938 2.48438 25.7031 0.390625 21.4062 0.390625
C14.7969 0.390625 8.09375 5 6.29688 12.7188
C6.70312 12.6094 7.5 12.4219 7.90625 12.4219
C9.20312 12.4219 11.7031 13.125 11.7031 16.2188
C11.7031 18.9062 9.79688 20 7.90625 20
C5.59375 20 4.09375 18.5938 4.09375 15.7969
C4.09375 7.09375 11 -2 21.5938 -2
C31.9062 -2 41.7031 6.875 41.7031 19.75
C41.7031 31.7188 33.9062 41 24.2031 41
C19.0938 41 14.7969 39.1094 11.4062 35.5312
z
" id="CMR17-53"/>
      </defs>
      <g transform="translate(168.367969103 362.437984317)scale(0.12 -0.12)">
       <use transform="scale(0.9962640099626402)" xlink:href="#CMR17-48"/>
       <use transform="translate(45.69047711706103 0.0)scale(0.9962640099626402)" xlink:href="#CMMI12-58"/>
       <use transform="translate(72.78765420688046 0.0)scale(0.9962640099626402)" xlink:href="#CMR17-53"/>
      </g>
     </g>
    </g>
    <g id="xtick_7">
     <g id="text_7">
      <!-- $0.6$ -->
      <defs>
       <path d="
M10.5938 34
C10.5938 57.6562 21.7969 63 28.2969 63
C30.4062 63 35.5 62.6406 37.5 59
C35.9062 59 32.9062 59 32.9062 55.5156
C32.9062 52.8281 35.0938 51.9219 36.5 51.9219
C37.4062 51.9219 40.0938 52.3125 40.0938 55.625
C40.0938 61.7812 35.0938 65.2969 28.2031 65.2969
C16.2969 65.2969 3.79688 52.9688 3.79688 31
C3.79688 3.95312 15.0938 -2 23.0938 -2
C32.7969 -2 42 6.67188 42 20.0469
C42 32.5156 33.9062 41.5938 23.7031 41.5938
C17.5938 41.5938 13.0938 37.6094 10.5938 30.625
z

M23.0938 0.390625
C10.7969 0.390625 10.7969 18.75 10.7969 22.4375
C10.7969 29.625 14.2031 40 23.5 40
C25.2031 40 30.0938 40 33.4062 33.125
C35.2031 29.2188 35.2031 25.1406 35.2031 20.1406
C35.2031 14.75 35.2031 10.7812 33.0938 6.78125
C30.9062 2.67188 27.7031 0.390625 23.0938 0.390625" id="CMR17-54"/>
      </defs>
      <g transform="translate(198.267031163 362.437984317)scale(0.12 -0.12)">
       <use transform="scale(0.9962640099626402)" xlink:href="#CMR17-48"/>
       <use transform="translate(45.69047711706103 0.0)scale(0.9962640099626402)" xlink:href="#CMMI12-58"/>
       <use transform="translate(72.78765420688046 0.0)scale(0.9962640099626402)" xlink:href="#CMR17-54"/>
      </g>
     </g>
    </g>
   </g>
   <g id="matplotlib.axis_2">
    <g id="ytick_1">
     <g id="line2d_16">
      <defs>
       <path d="
M0 0
L4 0" id="md7965d1ba0" style="stroke:#000000;stroke-width:0.5;"/>
      </defs>
      <g>
       <use style="stroke:#000000;stroke-width:0.5;" x="26.3514796807" xlink:href="#md7965d1ba0" y="145.8"/>
      </g>
     </g>
     <g id="line2d_17">
      <defs>
       <path d="
M0 0
L-4 0" id="md9a1c1a7cd" style="stroke:#000000;stroke-width:0.5;"/>
      </defs>
      <g>
       <use style="stroke:#000000;stroke-width:0.5;" x="205.271479681" xlink:href="#md9a1c1a7cd" y="145.8"/>
      </g>
     </g>
     <g id="text_8">
      <!-- $-1$ -->
      <defs>
       <path d="
M65.9062 23
C67.5938 23 69.4062 23 69.4062 25
C69.4062 27 67.5938 27 65.9062 27
L11.7969 27
C10.0938 27 8.29688 27 8.29688 25
C8.29688 23 10.0938 23 11.7969 23
z
" id="CMSY10-0"/>
      </defs>
      <g transform="translate(7.2 148.78580488)scale(0.12 -0.12)">
       <use transform="scale(0.9962640099626402)" xlink:href="#CMSY10-0"/>
       <use transform="translate(77.4874676506071 0.0)scale(0.9962640099626402)" xlink:href="#CMR17-49"/>
      </g>
     </g>
    </g>
    <g id="ytick_2">
     <g id="line2d_18">
      <g>
       <use style="stroke:#000000;stroke-width:0.5;" x="26.3514796807" xlink:href="#md7965d1ba0" y="179.82"/>
      </g>
     </g>
     <g id="line2d_19">
      <g>
       <use style="stroke:#000000;stroke-width:0.5;" x="205.271479681" xlink:href="#md9a1c1a7cd" y="179.82"/>
      </g>
     </g>
     <g id="text_9">
      <!-- $0$ -->
      <g transform="translate(16.4984894293 182.80580488)scale(0.12 -0.12)">
       <use transform="scale(0.9962640099626402)" xlink:href="#CMR17-48"/>
      </g>
     </g>
    </g>
    <g id="ytick_3">
     <g id="line2d_20">
      <g>
       <use style="stroke:#000000;stroke-width:0.5;" x="26.3514796807" xlink:href="#md7965d1ba0" y="213.84"/>
      </g>
     </g>
     <g id="line2d_21">
      <g>
       <use style="stroke:#000000;stroke-width:0.5;" x="205.271479681" xlink:href="#md9a1c1a7cd" y="213.84"/>
      </g>
     </g>
     <g id="text_10">
      <!-- $1$ -->
      <g transform="translate(16.4984894293 216.82580488)scale(0.12 -0.12)">
       <use transform="scale(0.9962640099626402)" xlink:href="#CMR17-49"/>
      </g>
     </g>
    </g>
    <g id="ytick_4">
     <g id="line2d_22">
      <g>
       <use style="stroke:#000000;stroke-width:0.5;" x="26.3514796807" xlink:href="#md7965d1ba0" y="247.86"/>
      </g>
     </g>
     <g id="line2d_23">
      <g>
       <use style="stroke:#000000;stroke-width:0.5;" x="205.271479681" xlink:href="#md9a1c1a7cd" y="247.86"/>
      </g>
     </g>
     <g id="text_11">
      <!-- $2$ -->
      <g transform="translate(16.4984894293 250.84580488)scale(0.12 -0.12)">
       <use transform="scale(0.9962640099626402)" xlink:href="#CMR17-50"/>
      </g>
     </g>
    </g>
    <g id="ytick_5">
     <g id="line2d_24">
      <g>
       <use style="stroke:#000000;stroke-width:0.5;" x="26.3514796807" xlink:href="#md7965d1ba0" y="281.88"/>
      </g>
     </g>
     <g id="line2d_25">
      <g>
       <use style="stroke:#000000;stroke-width:0.5;" x="205.271479681" xlink:href="#md9a1c1a7cd" y="281.88"/>
      </g>
     </g>
     <g id="text_12">
      <!-- $3$ -->
      <g transform="translate(16.4984894293 284.86580488)scale(0.12 -0.12)">
       <use transform="scale(0.9962640099626402)" xlink:href="#CMR17-51"/>
      </g>
     </g>
    </g>
    <g id="ytick_6">
     <g id="line2d_26">
      <g>
       <use style="stroke:#000000;stroke-width:0.5;" x="26.3514796807" xlink:href="#md7965d1ba0" y="315.9"/>
      </g>
     </g>
     <g id="line2d_27">
      <g>
       <use style="stroke:#000000;stroke-width:0.5;" x="205.271479681" xlink:href="#md9a1c1a7cd" y="315.9"/>
      </g>
     </g>
     <g id="text_13">
      <!-- $4$ -->
      <g transform="translate(16.4984894293 318.88580488)scale(0.12 -0.12)">
       <use transform="scale(0.9962640099626402)" xlink:href="#CMR17-52"/>
      </g>
     </g>
    </g>
    <g id="ytick_7">
     <g id="line2d_28">
      <g>
       <use style="stroke:#000000;stroke-width:0.5;" x="26.3514796807" xlink:href="#md7965d1ba0" y="349.92"/>
      </g>
     </g>
     <g id="line2d_29">
      <g>
       <use style="stroke:#000000;stroke-width:0.5;" x="205.271479681" xlink:href="#md9a1c1a7cd" y="349.92"/>
      </g>
     </g>
     <g id="text_14">
      <!-- $5$ -->
      <g transform="translate(16.4984894293 352.90580488)scale(0.12 -0.12)">
       <use transform="scale(0.9962640099626402)" xlink:href="#CMR17-53"/>
      </g>
     </g>
    </g>
   </g>
   <g id="text_15">
    <!-- $\mu$ -->
    <defs>
     <path d="
M14.4062 2.1875
C16.9062 -0.09375 20.5938 -1 24 -1
C30.4062 -1 34.7969 3.25 37.0938 6.32812
C38.0938 1.07812 42.2969 -1 45.7969 -1
C48.7969 -1 51.2031 0.78125 53 4.32812
C54.5938 7.70312 56 13.7344 56 14.1094
C56 14.6094 55.5938 15 55 15
C54.0938 15 54 14.5 53.5938 13.0312
C52.0938 7.20312 50.2031 1 46.0938 1
C43.2031 1 43 3.57812 43 5.59375
C43 7.875 43.9062 11.4688 44.5938 14.4688
L47.4062 25.2344
C47.7969 27.1406 48.9062 31.6094 49.4062 33.4219
C50 35.8125 51.0938 40.1094 51.0938 40.5
C51.0938 42 49.9062 43 48.4062 43
C47.5 43 45.4062 42.5938 44.5938 39.6094
L37.5938 11.875
C37.0938 9.875 37.0938 9.67188 35.7969 8.07812
C34.5938 6.39062 30.7031 1 24.4062 1
C18.7969 1 17 5.09375 17 9.76562
C17 12.6719 17.9062 16.1562 18.2969 17.8594
L22.7969 35.8281
C23.2969 37.7188 24.0938 40.9062 24.0938 41.5156
C24.0938 43.1094 22.7969 44 21.5 44
C20.5938 44 18.4062 43.7031 17.5938 40.5
L3.09375 -17.2969
C3 -17.7969 2.79688 -18.3906 2.79688 -19
C2.79688 -20.5 4 -21.5 5.5 -21.5
C8.40625 -21.5 9 -19.1875 9.70312 -16.4062
z
" id="CMMI12-22"/>
    </defs>
    <g transform="translate(17.3817610628 267.85580488)scale(0.12 -0.12)">
     <use transform="scale(0.9962640099626402)" xlink:href="#CMMI12-22"/>
    </g>
   </g>
   <g id="text_16">
    <!-- $y$ -->
    <defs>
     <path d="
M26.2969 -10.9375
C23.5938 -14.6719 19.7031 -18 14.7969 -18
C13.5938 -18 8.79688 -18 7.29688 -13.8906
C7.59375 -13.9844 8.09375 -13.9844 8.29688 -13.9844
C11.2969 -13.9844 13.2969 -11.3906 13.2969 -9.09375
C13.2969 -6.79688 11.4062 -6 9.90625 -6
C8.29688 -6 4.79688 -7.15625 4.79688 -11.8594
C4.79688 -16.7344 9.09375 -20.0938 14.7969 -20.0938
C24.7969 -20.0938 34.9062 -10.9375 37.7031 0.09375
L47.5 38.8281
C47.5938 39.3281 47.7969 39.9375 47.7969 40.5312
C47.7969 42.0156 46.5938 43.0156 45.0938 43.0156
C44.2031 43.0156 42.0938 42.6094 41.2969 39.6094
L33.9062 10.2812
C33.4062 8.48438 33.4062 8.28125 32.5938 7.1875
C30.5938 4.39062 27.2969 1 22.5 1
C16.9062 1 16.4062 6.48438 16.4062 9.1875
C16.4062 14.875 19.0938 22.5469 21.7969 29.7344
C22.9062 32.625 23.5 34.0312 23.5 36.0156
C23.5 40.2188 20.5 44 15.5938 44
C6.40625 44 2.70312 29.5312 2.70312 28.7344
C2.70312 28.3438 3.09375 27.8438 3.79688 27.8438
C4.70312 27.8438 4.79688 28.2344 5.20312 29.6406
C7.59375 38.0156 11.4062 42.0156 15.2969 42.0156
C16.2031 42.0156 17.9062 42.0156 17.9062 38.7188
C17.9062 36.125 16.7969 33.2344 15.2969 29.4375
C10.4062 16.3594 10.4062 13.0781 10.4062 10.6719
C10.4062 1.20312 17.2031 -1 22.2031 -1
C25.0938 -1 28.7031 -0.09375 32.2031 3.59375
L32.2969 3.5
C30.7969 -2.29688 29.7969 -6.125 26.2969 -10.9375" id="CMMI12-121"/>
    </defs>
    <g transform="translate(29.9298796807 158.99180488)scale(0.12 -0.12)">
     <use transform="scale(0.9962640099626402)" xlink:href="#CMMI12-121"/>
    </g>
   </g>
   <g id="text_17">
    <!-- $f_Y(y)$ -->
    <defs>
     <path d="
M30.5938 -24.3906
C30.5938 -24.2969 30.5938 -24.0938 30.2969 -23.7969
C25.7031 -19.125 13.4062 -6.35938 13.4062 24.6875
C13.4062 55.7656 25.5 68.4219 30.4062 73.3906
C30.4062 73.5 30.5938 73.7031 30.5938 74
C30.5938 74.2969 30.2969 74.5 29.9062 74.5
C28.7969 74.5 20.2969 67.125 15.4062 56.1562
C10.4062 45.1094 9 34.3594 9 24.8125
C9 17.625 9.70312 5.48438 15.7031 -7.35938
C20.5 -17.7344 28.7031 -25 29.9062 -25
C30.4062 -25 30.5938 -24.7969 30.5938 -24.3906" id="CMR17-40"/>
     <path d="
M26.2969 24.6875
C26.2969 31.875 25.5938 44.0156 19.5938 56.8594
C14.7969 67.2344 6.59375 74.5 5.40625 74.5
C5.09375 74.5 4.70312 74.3906 4.70312 73.8906
C4.70312 73.7031 4.79688 73.5938 4.90625 73.3906
C9.70312 68.4062 21.9062 55.75 21.9062 24.75
C21.9062 -6.35938 9.79688 -19.0156 4.90625 -24.0156
C4.79688 -24.2031 4.70312 -24.3125 4.70312 -24.5
C4.70312 -25 5.09375 -25 5.40625 -25
C6.5 -25 15 -17.625 19.9062 -6.65625
C24.9062 4.39062 26.2969 15.1406 26.2969 24.6875" id="CMR17-41"/>
     <path d="
M44.5938 40.0938
C46.5938 40.0938 47.4062 40.0938 47.4062 42
C47.4062 43 46.5938 43 44.7969 43
L36.7031 43
C38.5938 53.5781 40 60.8906 40.7969 64.1719
C41.4062 66.6406 43.5 69 46.0938 69
C48.2031 69 50.2969 68.0938 51.2969 67.1562
C47.4062 66.75 46.2031 63.7812 46.2031 62.0156
C46.2031 59.9531 47.7031 58.7344 49.5938 58.7344
C51.5938 58.7344 54.5938 60.4688 54.5938 64.3594
C54.5938 68.6406 50.4062 71 46 71
C41.7031 71 37.5 67.7188 35.5 63.7188
C33.7031 60.125 32.7031 56.4375 30.4062 43
L23.7031 43
C21.7969 43 20.7969 43 20.7969 41.2031
C20.7969 40.0938 21.4062 40.0938 23.4062 40.0938
L29.7969 40.0938
C28 30.875 23.9062 8.46875 21.5938 -2.14062
C19.9062 -10.7656 18.4062 -18 13.4062 -18
C13.0938 -18 10.2031 -18 8.40625 -16.1094
C13.5 -15.7031 13.5 -11.3438 13.5 -11.25
C13.5 -9.26562 12 -8.07812 10.0938 -8.07812
C8.09375 -8.07812 5.09375 -9.76562 5.09375 -13.5469
C5.09375 -17.8125 9.5 -20 13.4062 -20
C23.5938 -20 27.7969 -1.84375 28.9062 3.10938
C30.7031 10.75 35.5938 37.125 36.0938 40.0938
z
" id="CMMI12-102"/>
     <path d="
M58.7969 56.9531
L61.0938 59.2344
C65.5 63.7188 69.2031 64.8281 72.7031 65.1094
C73.7969 65.2031 74.7031 65.2969 74.7031 67
C74.7031 68 73.7031 68 73.5 68
C72.2969 68 71 68 69.7969 68
L65.7031 68
C62.7969 68 59.7031 68 56.9062 68
C56.2031 68 55.0938 68 55.0938 66.0312
C55.0938 65.0938 56.0938 65 56.4062 65
C59.4062 65 59.4062 63.5 59.4062 62.9062
C59.4062 61.8125 58.5938 60.3125 56.5938 58.0156
L32.7969 30.7656
L21.5 61.1094
C20.9062 62.5 20.9062 62.7031 20.9062 62.9062
C20.9062 65 25 65 26.2031 65
C27.4062 65 28.5 65 28.5 66.8594
C28.5 68 27.5938 68 27 68
C25.2969 68 23.2969 68 21.5938 68
L10.5 68
C8.70312 68 6.79688 68 5.09375 68
C4.40625 68 3.29688 68 3.29688 66.0312
C3.29688 65 4.20312 65 5.70312 65
C10.5938 65 11.5 64.0938 12.4062 61.8125
L24.7969 28.6719
C24.9062 28.375 25.2031 27.2656 25.2031 26.9688
C25.2031 26.6719 20.2969 7.0625 20 6.0625
C19.2031 3.39062 18.2031 2.89062 11.7969 2.89062
C10.0938 2.89062 9.29688 2.89062 9.29688 1
C9.29688 0 10.4062 0 10.7031 0
C12.5 0 14.5938 0 16.5 0
L28.2969 0
C30.0938 0 32.2031 0 34 0
C34.7031 0 35.9062 0 35.9062 1.79688
C35.9062 2.89062 35.2031 2.89062 33.5 2.89062
C27.2969 2.89062 27.2969 3.59375 27.2969 4.6875
C27.2969 5.39062 28.0938 8.5625 28.5938 10.5625
L32.2031 24.9062
C32.7969 26.9844 32.7969 27.1719 33.7031 28.1719
z
" id="CMMI12-89"/>
    </defs>
    <g transform="translate(164.283812661 339.208825443)scale(0.12 -0.12)">
     <use transform="translate(0.0 14.943914544092468)scale(0.9962640099626402)" xlink:href="#CMMI12-102"/>
     <use transform="translate(48.083237663449566 0.0)scale(0.6973817666173724)" xlink:href="#CMMI12-89"/>
     <use transform="translate(103.37456766130916 14.943914544092468)scale(0.9962640099626402)" xlink:href="#CMR17-40"/>
     <use transform="translate(138.6553354607721 14.943914544092468)scale(0.9962640099626402)" xlink:href="#CMMI12-121"/>
     <use transform="translate(189.79411618053396 14.943914544092468)scale(0.9962640099626402)" xlink:href="#CMR17-41"/>
    </g>
   </g>
   <g id="text_18">
    <!-- \framebox{$Y\sim \mathcal{N}(\mu,\sigma^2)$} -->
    <defs>
     <path d="
M72.2188 33.4062
C72.2188 35.5938 71.625 36.5938 70.8281 36.5938
C70.3281 36.5938 69.5156 35.9062 69.4219 34
C69.0156 24.4062 62.4219 18.9062 55.4219 18.9062
C49.1094 18.9062 44.3125 23.2031 39.4062 27.5
C34.3125 32.0938 29.1094 36.7031 22.3125 36.7031
C11.4062 36.7031 5.5 25.7031 5.5 16.5938
C5.5 13.4062 6.79688 13.4062 6.90625 13.4062
C8 13.4062 8.29688 15.4062 8.29688 15.7031
C8.70312 26.7031 16.2031 31.0938 22.3125 31.0938
C28.6094 31.0938 33.4062 26.7969 38.3125 22.5
C43.4062 17.9062 48.6094 13.2969 55.4219 13.2969
C66.3281 13.2969 72.2188 24.2969 72.2188 33.4062" id="CMSY10-24"/>
     <path d="
M19.5 -0.484375
C19.5 5.35938 17.5938 9.67188 13.5 9.67188
C10.2969 9.67188 8.70312 7.07812 8.70312 4.89062
C8.70312 2.6875 10.2031 0 13.5938 0
C14.9062 0 16 0.40625 16.9062 1.29688
C17.0938 1.5 17.2031 1.5 17.2969 1.5
C17.5 1.5 17.5 0.078125 17.5 -0.421875
C17.5 -3.75 16.9062 -10.2969 11.0938 -16.875
C10 -18.0781 10 -18.2812 10 -18.4844
C10 -19 10.5 -19.5 11 -19.5
C11.7969 -19.5 19.5 -12.0469 19.5 -0.484375" id="CMMI12-59"/>
     <path d="
M50.7969 37.625
C52.0938 37.625 55.4062 37.625 55.4062 40.8125
C55.4062 43 53.5 43 51.7031 43
L29.5938 43
C14.5938 43 3.79688 26.3438 3.79688 14.5625
C3.79688 6.09375 9.29688 -1 18.2969 -1
C30.0938 -1 43 11.6719 43 26.6406
C43 30.5312 42.0938 34.3125 39.7031 37.625
z

M18.4062 1
C13.2969 1 9.59375 4.89062 9.59375 11.7812
C9.59375 17.7656 13.2031 37.625 27.9062 37.625
C32.2031 37.625 37 35.5312 37 27.8281
C37 24.3438 35.4062 15.9531 31.9062 10.1875
C28.2969 4.29688 22.9062 1 18.4062 1" id="CMMI12-27"/>
     <path d="
M30.5938 57.9062
C32.4062 52.7031 34.5938 45.2031 39.0938 32.9062
C45.4062 15.9062 48.2031 9.70312 54.2969 0.203125
C55.7031 -1.90625 55.7969 -2 56.7031 -2
C58.0938 -2 60.2031 -0.796875 61.2969 0
C62.7031 1.29688 62.7969 1.40625 63.9062 6.3125
C69.9062 32.6406 77.5 60.0938 79.5 64.7031
C79.5938 64.9062 81.5938 68.7031 93.9062 68.7031
C95.9062 68.7031 97.7969 74.125 97.7969 76.375
C97.7969 78 97.2031 78 95.7969 78
C85.7969 78 81.2969 73.8125 80.0938 72.5156
C77.2969 68.9375 74.9062 61.6562 70.2969 45.0312
C66.7969 32.2812 63.5938 19.3281 60.5 6.48438
C55 14.75 51.9062 22.6094 47.0938 35.4531
C41.7969 49.5938 38.5938 59.9531 35.9062 68.9219
C35.2969 70.9062 35.2031 71 34.2969 71
C34.0938 71 32.0938 71 29.2031 68.6094
C28.2031 67.7188 28.0938 66.8125 28 65.7344
C25.2031 39.2344 15.7969 13.0625 13.0938 8.28125
C12.2969 6.78125 11.0938 5 9.09375 5
C8.09375 5 4.20312 5.5 1.59375 7.875
C1.09375 8.28125 0.90625 8.28125 0.796875 8.28125
C-0.796875 8.28125 -2.90625 3.28125 -2.90625 0.890625
C-2.90625 -2.20312 3.20312 -4.20312 6 -4.20312
C12.4062 -4.20312 17.5 9.59375 19.0938 14.2031
C25.5938 32.2969 28.7031 47.2031 30.5938 57.9062" id="CMSY10-78"/>
    </defs>
    <g transform="translate(113.152885563 193.696682458)scale(0.12 -0.12)">
     <use transform="translate(3.387291553160025 28.210555631226654)scale(0.9962640099626402)" xlink:href="#CMMI12-89"/>
     <use transform="translate(109.33764922069584 28.210555631226654)scale(0.9962640099626402)" xlink:href="#CMSY10-24"/>
     <use transform="translate(214.4991255934776 28.210555631226654)scale(0.9962640099626402)" xlink:href="#CMSY10-78"/>
     <use transform="translate(310.92258705148663 28.210555631226654)scale(0.9962640099626402)" xlink:href="#CMR17-40"/>
     <use transform="translate(346.2033548509496 28.210555631226654)scale(0.9962640099626402)" xlink:href="#CMMI12-22"/>
     <use transform="translate(404.894776302732 28.210555631226654)scale(0.9962640099626402)" xlink:href="#CMMI12-59"/>
     <use transform="translate(448.5963586258562 28.210555631226654)scale(0.9962640099626402)" xlink:href="#CMMI12-27"/>
     <use transform="translate(507.61641220909877 64.36419457308531)scale(0.6973817666173724)" xlink:href="#CMR17-50"/>
     <use transform="translate(540.097726178199 28.210555631226654)scale(0.9962640099626402)" xlink:href="#CMR17-41"/>
     <path d="
M0 112.307
L578.766 112.307
L578.766 112.705
L0 112.705
L0 112.307
z
"/>
     <path d="
M0 0.3985
L0.3985 0.3985
L0.3985 112.307
L0 112.307
L0 0.3985
z
"/>
     <path d="
M578.367 0.3985
L578.766 0.3985
L578.766 112.307
L578.367 112.307
L578.367 0.3985
z
"/>
     <path d="
M0 0
L578.766 0
L578.766 0.3985
L0 0.3985
L0 0
z
"/>
    </g>
   </g>
  </g>
  <g id="axes_2">
   <g id="patch_7">
    <path d="
M210.311 349.92
L490.031 349.92
L490.031 145.8
L210.311 145.8
z
" style="fill:#ffffff;"/>
   </g>
   <g id="patch_8">
    <path d="
M235.384 230.85
Q130.868 230.85 26.3515 230.85" style="fill:none;stroke:#006400;stroke-dasharray:6.000000,6.000000;stroke-dashoffset:0.0;stroke-linecap:round;"/>
   </g>
   <g id="patch_9">
    <path d="
M278.465 264.87
Q152.408 264.87 26.3515 264.87" style="fill:none;stroke:#006400;stroke-dasharray:6.000000,6.000000;stroke-dashoffset:0.0;stroke-linecap:round;"/>
   </g>
   <g id="line2d_30">
    <path clip-path="url(#p3d569bb202)" d="
M212.37 145.8
L213.094 156.057
L213.961 165.289
L214.957 173.495
L216.048 180.675
L217.186 186.829
L218.549 192.984
L219.889 198.112
L221.448 203.241
L223.26 208.369
L224.919 212.472
L226.792 216.575
L228.904 220.678
L231.287 224.781
L233.976 228.884
L237.009 232.987
L239.537 236.064
L242.303 239.141
L245.332 242.218
L248.647 245.296
L252.277 248.373
L256.25 251.45
L260.598 254.527
L265.359 257.604
L270.57 260.682
L276.275 263.759
L282.52 266.836
L289.356 269.913
L296.839 272.99
L305.03 276.068
L313.997 279.145
L323.813 282.222
L334.558 285.299
L346.32 288.376
L359.196 291.453
L373.291 294.531
L388.72 297.608
L405.61 300.685
L424.099 303.762
L444.338 306.839
L466.493 309.917
L490.746 312.994
L490.746 312.994" style="fill:none;stroke:#006400;stroke-linecap:square;stroke-width:2;"/>
   </g>
   <g id="patch_10">
    <path d="
M210.311 349.92
L490.031 349.92" style="fill:none;stroke:#000000;stroke-linecap:square;stroke-linejoin:miter;stroke-width:0.5;"/>
   </g>
   <g id="patch_11">
    <path d="
M210.311 349.92
L210.311 145.8" style="fill:none;stroke:#000000;stroke-linecap:square;stroke-linejoin:miter;stroke-width:0.5;"/>
   </g>
   <g id="patch_12">
    <path d="
M210.311 145.8
L490.031 145.8" style="fill:none;stroke:#000000;stroke-linecap:square;stroke-linejoin:miter;stroke-width:0.5;"/>
   </g>
   <g id="patch_13">
    <path d="
M490.031 349.92
L490.031 145.8" style="fill:none;stroke:#000000;stroke-linecap:square;stroke-linejoin:miter;stroke-width:0.5;"/>
   </g>
   <g id="matplotlib.axis_3">
    <g id="xtick_8">
     <g id="line2d_31">
      <g>
       <use style="stroke:#000000;stroke-width:0.5;" x="210.311479681" xlink:href="#mc7db9fdffb" y="349.92"/>
      </g>
     </g>
     <g id="line2d_32">
      <g>
       <use style="stroke:#000000;stroke-width:0.5;" x="210.311479681" xlink:href="#m5a7d422ac3" y="145.8"/>
      </g>
     </g>
     <g id="text_19">
      <!-- $0$ -->
      <g transform="translate(207.384984555 362.437984317)scale(0.12 -0.12)">
       <use transform="scale(0.9962640099626402)" xlink:href="#CMR17-48"/>
      </g>
     </g>
    </g>
    <g id="xtick_9">
     <g id="line2d_33">
      <g>
       <use style="stroke:#000000;stroke-width:0.5;" x="266.255479681" xlink:href="#mc7db9fdffb" y="349.92"/>
      </g>
     </g>
     <g id="line2d_34">
      <g>
       <use style="stroke:#000000;stroke-width:0.5;" x="266.255479681" xlink:href="#m5a7d422ac3" y="145.8"/>
      </g>
     </g>
     <g id="text_20">
      <!-- $10$ -->
      <g transform="translate(260.402489429 362.437984317)scale(0.12 -0.12)">
       <use transform="scale(0.9962640099626402)" xlink:href="#CMR17-49"/>
       <use transform="translate(45.69047711706103 0.0)scale(0.9962640099626402)" xlink:href="#CMR17-48"/>
      </g>
     </g>
    </g>
    <g id="xtick_10">
     <g id="line2d_35">
      <g>
       <use style="stroke:#000000;stroke-width:0.5;" x="322.199479681" xlink:href="#mc7db9fdffb" y="349.92"/>
      </g>
     </g>
     <g id="line2d_36">
      <g>
       <use style="stroke:#000000;stroke-width:0.5;" x="322.199479681" xlink:href="#m5a7d422ac3" y="145.8"/>
      </g>
     </g>
     <g id="text_21">
      <!-- $20$ -->
      <g transform="translate(316.346489429 362.437984317)scale(0.12 -0.12)">
       <use transform="scale(0.9962640099626402)" xlink:href="#CMR17-50"/>
       <use transform="translate(45.69047711706103 0.0)scale(0.9962640099626402)" xlink:href="#CMR17-48"/>
      </g>
     </g>
    </g>
    <g id="xtick_11">
     <g id="line2d_37">
      <g>
       <use style="stroke:#000000;stroke-width:0.5;" x="378.143479681" xlink:href="#mc7db9fdffb" y="349.92"/>
      </g>
     </g>
     <g id="line2d_38">
      <g>
       <use style="stroke:#000000;stroke-width:0.5;" x="378.143479681" xlink:href="#m5a7d422ac3" y="145.8"/>
      </g>
     </g>
     <g id="text_22">
      <!-- $30$ -->
      <g transform="translate(372.290489429 362.437984317)scale(0.12 -0.12)">
       <use transform="scale(0.9962640099626402)" xlink:href="#CMR17-51"/>
       <use transform="translate(45.69047711706103 0.0)scale(0.9962640099626402)" xlink:href="#CMR17-48"/>
      </g>
     </g>
    </g>
    <g id="xtick_12">
     <g id="line2d_39">
      <g>
       <use style="stroke:#000000;stroke-width:0.5;" x="434.087479681" xlink:href="#mc7db9fdffb" y="349.92"/>
      </g>
     </g>
     <g id="line2d_40">
      <g>
       <use style="stroke:#000000;stroke-width:0.5;" x="434.087479681" xlink:href="#m5a7d422ac3" y="145.8"/>
      </g>
     </g>
     <g id="text_23">
      <!-- $40$ -->
      <g transform="translate(428.234489429 362.437984317)scale(0.12 -0.12)">
       <use transform="scale(0.9962640099626402)" xlink:href="#CMR17-52"/>
       <use transform="translate(45.69047711706103 0.0)scale(0.9962640099626402)" xlink:href="#CMR17-48"/>
      </g>
     </g>
    </g>
    <g id="xtick_13">
     <g id="line2d_41">
      <g>
       <use style="stroke:#000000;stroke-width:0.5;" x="490.031479681" xlink:href="#mc7db9fdffb" y="349.92"/>
      </g>
     </g>
     <g id="line2d_42">
      <g>
       <use style="stroke:#000000;stroke-width:0.5;" x="490.031479681" xlink:href="#m5a7d422ac3" y="145.8"/>
      </g>
     </g>
     <g id="text_24">
      <!-- $50$ -->
      <g transform="translate(484.178489429 362.437984317)scale(0.12 -0.12)">
       <use transform="scale(0.9962640099626402)" xlink:href="#CMR17-53"/>
       <use transform="translate(45.69047711706103 0.0)scale(0.9962640099626402)" xlink:href="#CMR17-48"/>
      </g>
     </g>
    </g>
   </g>
   <g id="matplotlib.axis_4">
    <g id="ytick_8">
     <g id="line2d_43">
      <g>
       <use style="stroke:#000000;stroke-width:0.5;" x="210.311479681" xlink:href="#md7965d1ba0" y="145.8"/>
      </g>
     </g>
     <g id="line2d_44">
      <g>
       <use style="stroke:#000000;stroke-width:0.5;" x="490.031479681" xlink:href="#md9a1c1a7cd" y="145.8"/>
      </g>
     </g>
    </g>
    <g id="ytick_9">
     <g id="line2d_45">
      <g>
       <use style="stroke:#000000;stroke-width:0.5;" x="210.311479681" xlink:href="#md7965d1ba0" y="179.82"/>
      </g>
     </g>
     <g id="line2d_46">
      <g>
       <use style="stroke:#000000;stroke-width:0.5;" x="490.031479681" xlink:href="#md9a1c1a7cd" y="179.82"/>
      </g>
     </g>
    </g>
    <g id="ytick_10">
     <g id="line2d_47">
      <g>
       <use style="stroke:#000000;stroke-width:0.5;" x="210.311479681" xlink:href="#md7965d1ba0" y="213.84"/>
      </g>
     </g>
     <g id="line2d_48">
      <g>
       <use style="stroke:#000000;stroke-width:0.5;" x="490.031479681" xlink:href="#md9a1c1a7cd" y="213.84"/>
      </g>
     </g>
    </g>
    <g id="ytick_11">
     <g id="line2d_49">
      <g>
       <use style="stroke:#000000;stroke-width:0.5;" x="210.311479681" xlink:href="#md7965d1ba0" y="247.86"/>
      </g>
     </g>
     <g id="line2d_50">
      <g>
       <use style="stroke:#000000;stroke-width:0.5;" x="490.031479681" xlink:href="#md9a1c1a7cd" y="247.86"/>
      </g>
     </g>
    </g>
    <g id="ytick_12">
     <g id="line2d_51">
      <g>
       <use style="stroke:#000000;stroke-width:0.5;" x="210.311479681" xlink:href="#md7965d1ba0" y="281.88"/>
      </g>
     </g>
     <g id="line2d_52">
      <g>
       <use style="stroke:#000000;stroke-width:0.5;" x="490.031479681" xlink:href="#md9a1c1a7cd" y="281.88"/>
      </g>
     </g>
    </g>
    <g id="ytick_13">
     <g id="line2d_53">
      <g>
       <use style="stroke:#000000;stroke-width:0.5;" x="210.311479681" xlink:href="#md7965d1ba0" y="315.9"/>
      </g>
     </g>
     <g id="line2d_54">
      <g>
       <use style="stroke:#000000;stroke-width:0.5;" x="490.031479681" xlink:href="#md9a1c1a7cd" y="315.9"/>
      </g>
     </g>
    </g>
    <g id="ytick_14">
     <g id="line2d_55">
      <g>
       <use style="stroke:#000000;stroke-width:0.5;" x="210.311479681" xlink:href="#md7965d1ba0" y="349.92"/>
      </g>
     </g>
     <g id="line2d_56">
      <g>
       <use style="stroke:#000000;stroke-width:0.5;" x="490.031479681" xlink:href="#md9a1c1a7cd" y="349.92"/>
      </g>
     </g>
    </g>
   </g>
   <g id="text_25">
    <!-- $y$ -->
    <g transform="translate(215.905879681 312.08180488)scale(0.12 -0.12)">
     <use transform="scale(0.9962640099626402)" xlink:href="#CMMI12-121"/>
    </g>
   </g>
   <g id="text_26">
    <!-- $x$ -->
    <defs>
     <path d="
M47.4062 40.7188
C44.2031 40.1094 43 37.7188 43 35.8281
C43 33.4219 44.9062 32.625 46.2969 32.625
C49.2969 32.625 51.4062 35.2188 51.4062 37.9219
C51.4062 42.1094 46.5938 44 42.4062 44
C36.2969 44 32.9062 38.0156 32 36.125
C29.7031 44 23.5 44 21.7031 44
C11.5 44 6.09375 30.9375 6.09375 28.7344
C6.09375 28.3438 6.5 27.8438 7.20312 27.8438
C8 27.8438 8.20312 28.4375 8.40625 28.8438
C11.7969 39.9219 18.5 42.0156 21.4062 42.0156
C25.9062 42.0156 26.7969 37.8125 26.7969 35.4219
C26.7969 33.2344 26.2031 30.9375 25 26.1406
L21.5938 12.4688
C20.0938 6.48438 17.2031 1 11.9062 1
C11.4062 1 8.90625 1 6.79688 2.29688
C10.4062 3 11.2031 5.98438 11.2031 7.1875
C11.2031 9.1875 9.70312 10.375 7.79688 10.375
C5.40625 10.375 2.79688 8.28125 2.79688 5.09375
C2.79688 0.890625 7.5 -1 11.7969 -1
C16.5938 -1 20 2.79688 22.0938 6.89062
C23.7031 1 28.7031 -1 32.4062 -1
C42.5938 -1 48 12.0781 48 14.2656
C48 14.7656 47.5938 15.1719 47 15.1719
C46.0938 15.1719 46 14.6719 45.7031 13.875
C43 5.09375 37.2031 1 32.7031 1
C29.2031 1 27.2969 3.59375 27.2969 7.6875
C27.2969 9.875 27.7031 11.4688 29.2969 18.0625
L32.7969 31.625
C34.2969 37.625 37.7031 42.0156 42.2969 42.0156
C42.5 42.0156 45.2969 42.0156 47.4062 40.7188" id="CMMI12-120"/>
    </defs>
    <g transform="translate(458.733436109 339.208825443)scale(0.12 -0.12)">
     <use transform="scale(0.9962640099626402)" xlink:href="#CMMI12-120"/>
    </g>
   </g>
   <g id="text_27">
    <!-- $x=e^y$ -->
    <defs>
     <path d="
M64.2969 31.5156
C65.7969 31.5156 67.2969 31.5156 67.2969 33.2031
C67.2969 35 65.5938 35 63.9062 35
L8 35
C6.29688 35 4.59375 35 4.59375 33.2031
C4.59375 31.5156 6.09375 31.5156 7.59375 31.5156
z

M63.9062 14
C65.5938 14 67.2969 14 67.2969 15.7969
C67.2969 17.4844 65.7969 17.4844 64.2969 17.4844
L7.59375 17.4844
C6.09375 17.4844 4.59375 17.4844 4.59375 15.7969
C4.59375 14 6.29688 14 8 14
z
" id="CMR17-61"/>
     <path d="
M17.9062 23.1094
C20.5938 23.1094 27.4062 23.1094 32.2031 24.9219
C39.7969 27.8594 40.5 33.7188 40.5 35.5312
C40.5 39.9688 36.7031 44 30.0938 44
C19.5938 44 4.5 34.5312 4.5 16.7656
C4.5 6.28125 10.5 -1 19.5938 -1
C33.2031 -1 41.7969 9.51562 41.7969 10.8125
C41.7969 11.4062 41.2031 11.9062 40.7969 11.9062
C40.5 11.9062 40.4062 11.8125 39.5 10.9219
C33.0938 2.48438 23.5938 1 19.7969 1
C14.0938 1 11.0938 5.46875 11.0938 12.8438
C11.0938 14.2344 11.0938 16.7344 12.5938 23.1094
z

M13.0938 25
C17.4062 40.5 26.9062 42.0156 30.0938 42.0156
C34.5 42.0156 37.5 39.4062 37.5 35.5781
C37.5 25 21.5 25 17.2969 25
z
" id="CMMI12-101"/>
    </defs>
    <g transform="translate(350.171479681 282.430889706)scale(0.12 -0.12)">
     <use transform="scale(0.9962640099626402)" xlink:href="#CMMI12-120"/>
     <use transform="translate(83.10806825478674 0.0)scale(0.9962640099626402)" xlink:href="#CMR17-61"/>
     <use transform="translate(182.49686539247355 0.0)scale(0.9962640099626402)" xlink:href="#CMMI12-101"/>
     <use transform="translate(227.70886640916876 36.15363894185866)scale(0.6973817666173724)" xlink:href="#CMMI12-121"/>
    </g>
   </g>
  </g>
  <g id="axes_3">
   <g id="patch_14">
    <path d="
M210.311 140.76
L490.031 140.76
L490.031 7.2
L210.311 7.2
z
" style="fill:#ffffff;"/>
   </g>
   <g id="patch_15">
    <path d="
M235.384 48.1359
Q235.384 139.493 235.384 230.85" style="fill:none;stroke:#006400;stroke-dasharray:6.000000,6.000000;stroke-dashoffset:0.0;stroke-linecap:round;"/>
   </g>
   <g id="patch_16">
    <path d="
M278.465 66.3344
Q278.465 165.602 278.465 264.87" style="fill:none;stroke:#006400;stroke-dasharray:6.000000,6.000000;stroke-dashoffset:0.0;stroke-linecap:round;"/>
   </g>
   <g id="PolyCollection_2">
    <defs>
     <path d="
M212.37 -231.424
L212.37 -231.596
L212.396 -231.606
L212.422 -231.617
L212.449 -231.628
L212.476 -231.639
L212.503 -231.651
L212.531 -231.664
L212.559 -231.678
L212.587 -231.692
L212.616 -231.707
L212.645 -231.722
L212.675 -231.739
L212.704 -231.756
L212.735 -231.774
L212.765 -231.793
L212.796 -231.813
L212.828 -231.833
L212.86 -231.855
L212.892 -231.878
L212.924 -231.902
L212.957 -231.927
L212.991 -231.954
L213.025 -231.981
L213.059 -232.01
L213.094 -232.041
L213.129 -232.072
L213.165 -232.105
L213.201 -232.14
L213.237 -232.176
L213.274 -232.214
L213.312 -232.254
L213.35 -232.295
L213.388 -232.338
L213.427 -232.383
L213.466 -232.43
L213.506 -232.479
L213.546 -232.53
L213.587 -232.584
L213.629 -232.639
L213.671 -232.697
L213.713 -232.758
L213.756 -232.821
L213.8 -232.886
L213.844 -232.955
L213.888 -233.026
L213.934 -233.1
L213.98 -233.177
L214.026 -233.257
L214.073 -233.34
L214.12 -233.427
L214.169 -233.517
L214.217 -233.61
L214.267 -233.707
L214.317 -233.808
L214.367 -233.912
L214.419 -234.021
L214.471 -234.134
L214.523 -234.25
L214.576 -234.371
L214.63 -234.497
L214.685 -234.627
L214.74 -234.762
L214.796 -234.901
L214.853 -235.046
L214.91 -235.196
L214.968 -235.35
L215.027 -235.511
L215.087 -235.676
L215.147 -235.848
L215.208 -236.025
L215.27 -236.208
L215.333 -236.397
L215.396 -236.592
L215.461 -236.793
L215.526 -237.001
L215.592 -237.216
L215.659 -237.438
L215.726 -237.666
L215.795 -237.901
L215.864 -238.144
L215.934 -238.394
L216.005 -238.652
L216.077 -238.917
L216.15 -239.19
L216.224 -239.471
L216.299 -239.76
L216.374 -240.057
L216.451 -240.363
L216.529 -240.678
L216.607 -241.001
L216.687 -241.333
L216.767 -241.673
L216.849 -242.023
L216.932 -242.383
L217.015 -242.751
L217.1 -243.129
L217.186 -243.517
L217.273 -243.915
L217.361 -244.322
L217.45 -244.739
L217.54 -245.167
L217.631 -245.605
L217.724 -246.053
L217.818 -246.511
L217.913 -246.98
L218.009 -247.46
L218.106 -247.95
L218.205 -248.452
L218.304 -248.964
L218.405 -249.487
L218.508 -250.021
L218.611 -250.566
L218.716 -251.122
L218.823 -251.689
L218.93 -252.268
L219.039 -252.858
L219.149 -253.459
L219.261 -254.071
L219.374 -254.695
L219.489 -255.33
L219.605 -255.976
L219.722 -256.633
L219.841 -257.302
L219.962 -257.982
L220.084 -258.673
L220.207 -259.375
L220.332 -260.088
L220.459 -260.812
L220.587 -261.547
L220.717 -262.292
L220.849 -263.049
L220.982 -263.815
L221.117 -264.593
L221.254 -265.38
L221.392 -266.178
L221.532 -266.985
L221.674 -267.803
L221.818 -268.63
L221.963 -269.466
L222.11 -270.312
L222.259 -271.167
L222.41 -272.03
L222.563 -272.902
L222.718 -273.782
L222.875 -274.67
L223.034 -275.566
L223.195 -276.47
L223.358 -277.38
L223.523 -278.298
L223.69 -279.222
L223.859 -280.152
L224.03 -281.088
L224.203 -282.029
L224.379 -282.976
L224.557 -283.927
L224.737 -284.883
L224.919 -285.843
L225.104 -286.806
L225.291 -287.773
L225.48 -288.742
L225.672 -289.713
L225.866 -290.687
L226.063 -291.661
L226.262 -292.637
L226.464 -293.613
L226.668 -294.589
L226.875 -295.565
L227.084 -296.54
L227.296 -297.513
L227.511 -298.484
L227.728 -299.453
L227.949 -300.418
L228.172 -301.38
L228.397 -302.338
L228.626 -303.292
L228.858 -304.24
L229.092 -305.183
L229.329 -306.119
L229.57 -307.049
L229.813 -307.971
L230.06 -308.885
L230.31 -309.791
L230.562 -310.688
L230.818 -311.576
L231.078 -312.453
L231.34 -313.32
L231.606 -314.176
L231.875 -315.02
L232.148 -315.852
L232.424 -316.671
L232.703 -317.477
L232.986 -318.269
L233.273 -319.047
L233.563 -319.81
L233.857 -320.558
L234.155 -321.29
L234.456 -322.005
L234.762 -322.704
L235.071 -323.385
L235.384 -324.048
L235.384 -231.424
L235.384 -231.424
L235.071 -231.424
L234.762 -231.424
L234.456 -231.424
L234.155 -231.424
L233.857 -231.424
L233.563 -231.424
L233.273 -231.424
L232.986 -231.424
L232.703 -231.424
L232.424 -231.424
L232.148 -231.424
L231.875 -231.424
L231.606 -231.424
L231.34 -231.424
L231.078 -231.424
L230.818 -231.424
L230.562 -231.424
L230.31 -231.424
L230.06 -231.424
L229.813 -231.424
L229.57 -231.424
L229.329 -231.424
L229.092 -231.424
L228.858 -231.424
L228.626 -231.424
L228.397 -231.424
L228.172 -231.424
L227.949 -231.424
L227.728 -231.424
L227.511 -231.424
L227.296 -231.424
L227.084 -231.424
L226.875 -231.424
L226.668 -231.424
L226.464 -231.424
L226.262 -231.424
L226.063 -231.424
L225.866 -231.424
L225.672 -231.424
L225.48 -231.424
L225.291 -231.424
L225.104 -231.424
L224.919 -231.424
L224.737 -231.424
L224.557 -231.424
L224.379 -231.424
L224.203 -231.424
L224.03 -231.424
L223.859 -231.424
L223.69 -231.424
L223.523 -231.424
L223.358 -231.424
L223.195 -231.424
L223.034 -231.424
L222.875 -231.424
L222.718 -231.424
L222.563 -231.424
L222.41 -231.424
L222.259 -231.424
L222.11 -231.424
L221.963 -231.424
L221.818 -231.424
L221.674 -231.424
L221.532 -231.424
L221.392 -231.424
L221.254 -231.424
L221.117 -231.424
L220.982 -231.424
L220.849 -231.424
L220.717 -231.424
L220.587 -231.424
L220.459 -231.424
L220.332 -231.424
L220.207 -231.424
L220.084 -231.424
L219.962 -231.424
L219.841 -231.424
L219.722 -231.424
L219.605 -231.424
L219.489 -231.424
L219.374 -231.424
L219.261 -231.424
L219.149 -231.424
L219.039 -231.424
L218.93 -231.424
L218.823 -231.424
L218.716 -231.424
L218.611 -231.424
L218.508 -231.424
L218.405 -231.424
L218.304 -231.424
L218.205 -231.424
L218.106 -231.424
L218.009 -231.424
L217.913 -231.424
L217.818 -231.424
L217.724 -231.424
L217.631 -231.424
L217.54 -231.424
L217.45 -231.424
L217.361 -231.424
L217.273 -231.424
L217.186 -231.424
L217.1 -231.424
L217.015 -231.424
L216.932 -231.424
L216.849 -231.424
L216.767 -231.424
L216.687 -231.424
L216.607 -231.424
L216.529 -231.424
L216.451 -231.424
L216.374 -231.424
L216.299 -231.424
L216.224 -231.424
L216.15 -231.424
L216.077 -231.424
L216.005 -231.424
L215.934 -231.424
L215.864 -231.424
L215.795 -231.424
L215.726 -231.424
L215.659 -231.424
L215.592 -231.424
L215.526 -231.424
L215.461 -231.424
L215.396 -231.424
L215.333 -231.424
L215.27 -231.424
L215.208 -231.424
L215.147 -231.424
L215.087 -231.424
L215.027 -231.424
L214.968 -231.424
L214.91 -231.424
L214.853 -231.424
L214.796 -231.424
L214.74 -231.424
L214.685 -231.424
L214.63 -231.424
L214.576 -231.424
L214.523 -231.424
L214.471 -231.424
L214.419 -231.424
L214.367 -231.424
L214.317 -231.424
L214.267 -231.424
L214.217 -231.424
L214.169 -231.424
L214.12 -231.424
L214.073 -231.424
L214.026 -231.424
L213.98 -231.424
L213.934 -231.424
L213.888 -231.424
L213.844 -231.424
L213.8 -231.424
L213.756 -231.424
L213.713 -231.424
L213.671 -231.424
L213.629 -231.424
L213.587 -231.424
L213.546 -231.424
L213.506 -231.424
L213.466 -231.424
L213.427 -231.424
L213.388 -231.424
L213.35 -231.424
L213.312 -231.424
L213.274 -231.424
L213.237 -231.424
L213.201 -231.424
L213.165 -231.424
L213.129 -231.424
L213.094 -231.424
L213.059 -231.424
L213.025 -231.424
L212.991 -231.424
L212.957 -231.424
L212.924 -231.424
L212.892 -231.424
L212.86 -231.424
L212.828 -231.424
L212.796 -231.424
L212.765 -231.424
L212.735 -231.424
L212.704 -231.424
L212.675 -231.424
L212.645 -231.424
L212.616 -231.424
L212.587 -231.424
L212.559 -231.424
L212.531 -231.424
L212.503 -231.424
L212.476 -231.424
L212.449 -231.424
L212.422 -231.424
L212.396 -231.424
L212.37 -231.424
z
" id="m94d3f7ccbf" style="stroke:#4682b4;stroke-opacity:0.2;"/>
    </defs>
    <g clip-path="url(#p49928919b5)">
     <use style="fill:#4682b4;fill-opacity:0.2;stroke:#4682b4;stroke-opacity:0.2;" x="0.0" xlink:href="#m94d3f7ccbf" y="372.184358874"/>
    </g>
   </g>
   <g id="line2d_57">
    <path clip-path="url(#p49928919b5)" d="
M212.37 140.588
L212.931 140.277
L213.546 139.654
L214.188 138.631
L214.819 137.226
L215.552 135.098
L216.405 132.006
L217.613 126.668
L219.061 119.207
L221.789 103.721
L224.919 86.3415
L226.792 77.0095
L228.352 70.0373
L230.06 63.2991
L231.929 56.9966
L233.273 53.1371
L234.7 49.6191
L236.216 46.4969
L237.826 43.8202
L239.537 41.6322
L240.431 40.7331
L241.353 39.9691
L242.303 39.3435
L243.283 38.8588
L244.292 38.5171
L245.332 38.3199
L246.404 38.268
L247.509 38.3616
L248.647 38.6003
L249.821 38.9832
L251.03 39.5085
L253.561 40.9772
L256.25 42.9817
L259.105 45.4887
L262.138 48.4574
L267.044 53.6707
L284.73 73.0104
L289.356 77.6809
L294.269 82.3621
L299.487 87.0022
L305.03 91.554
L310.918 95.9756
L317.171 100.231
L323.813 104.289
L330.868 108.128
L338.361 111.727
L346.32 115.076
L354.774 118.168
L363.754 120.999
L373.291 123.574
L383.421 125.898
L394.181 127.981
L405.61 129.834
L417.749 131.471
L430.643 132.908
L444.338 134.16
L458.884 135.244
L474.335 136.176
L490.746 136.972
L490.746 136.972" style="fill:none;stroke:#4682b4;stroke-linecap:square;stroke-width:2.5;"/>
   </g>
   <g id="line2d_58">
    <path clip-path="url(#p49928919b5)" d="
M304.168 140.76
L304.168 7.2" style="fill:none;stroke:#4682b4;stroke-dasharray:6.000000,6.000000;stroke-dashoffset:0.0;"/>
   </g>
   <g id="line2d_59">
    <path clip-path="url(#p49928919b5)" d="
M212.37 140.743
L213.748 140.571
L214.685 140.252
L215.552 139.755
L216.591 138.869
L217.613 137.681
L218.801 135.922
L220.183 133.424
L221.789 130.024
L224.065 124.581
L233.273 101.583
L235.447 96.8769
L237.826 92.2294
L240.431 87.7715
L242.303 84.9719
L244.292 82.3572
L246.404 79.9663
L248.647 77.8361
L251.03 76.0002
L253.561 74.4883
L256.25 73.3254
L259.105 72.5309
L262.138 72.1181
L265.359 72.094
L268.781 72.4591
L272.415 73.2072
L276.275 74.3256
L280.375 75.7957
L284.73 77.5931
L291.775 80.8382
L302.217 86.0069
L317.171 93.3839
L327.287 98.0582
L334.558 101.197
L342.281 104.313
L350.484 107.374
L359.196 110.351
L368.451 113.219
L378.28 115.959
L388.72 118.552
L399.81 120.987
L411.588 123.254
L424.099 125.35
L437.387 127.271
L451.502 129.02
L466.493 130.6
L482.417 132.017
L490.746 132.667
L490.746 132.667" style="fill:none;opacity:0.3;stroke:#4682b4;stroke-linecap:square;stroke-width:2.5;"/>
   </g>
   <g id="line2d_60">
    <path clip-path="url(#p49928919b5)" d="
M212.37 140.759
L215.396 140.638
L217.186 140.343
L218.801 139.856
L220.485 139.098
L222.14 138.106
L224.065 136.671
L226.302 134.678
L228.904 132.03
L232.591 127.907
L241.353 117.886
L245.332 113.729
L248.647 110.576
L252.277 107.483
L254.885 105.499
L257.656 103.608
L260.598 101.837
L263.724 100.213
L267.044 98.7603
L270.57 97.5021
L274.316 96.4587
L278.294 95.6472
L282.52 95.081
L287.008 94.7698
L291.775 94.7189
L296.839 94.929
L302.217 95.3966
L307.93 96.1138
L313.997 97.0686
L323.813 98.9109
L334.558 101.185
L378.28 110.806
L394.181 113.96
L405.61 116.052
L417.749 118.11
L430.643 120.114
L444.338 122.047
L458.884 123.896
L474.335 125.648
L490.746 127.294
L490.746 127.294" style="fill:none;opacity:0.1;stroke:#4682b4;stroke-linecap:square;stroke-width:2.5;"/>
   </g>
   <g id="patch_17">
    <path d="
M210.311 140.76
L490.031 140.76" style="fill:none;stroke:#000000;stroke-linecap:square;stroke-linejoin:miter;stroke-width:0.5;"/>
   </g>
   <g id="patch_18">
    <path d="
M210.311 140.76
L210.311 7.2" style="fill:none;stroke:#000000;stroke-linecap:square;stroke-linejoin:miter;stroke-width:0.5;"/>
   </g>
   <g id="patch_19">
    <path d="
M210.311 7.2
L490.031 7.2" style="fill:none;stroke:#000000;stroke-linecap:square;stroke-linejoin:miter;stroke-width:0.5;"/>
   </g>
   <g id="patch_20">
    <path d="
M490.031 140.76
L490.031 7.2" style="fill:none;stroke:#000000;stroke-linecap:square;stroke-linejoin:miter;stroke-width:0.5;"/>
   </g>
   <g id="matplotlib.axis_5">
    <g id="xtick_14">
     <g id="line2d_61">
      <g>
       <use style="stroke:#000000;stroke-width:0.5;" x="210.311479681" xlink:href="#mc7db9fdffb" y="140.76"/>
      </g>
     </g>
     <g id="line2d_62">
      <g>
       <use style="stroke:#000000;stroke-width:0.5;" x="210.311479681" xlink:href="#m5a7d422ac3" y="7.2"/>
      </g>
     </g>
    </g>
    <g id="xtick_15">
     <g id="line2d_63">
      <g>
       <use style="stroke:#000000;stroke-width:0.5;" x="266.255479681" xlink:href="#mc7db9fdffb" y="140.76"/>
      </g>
     </g>
     <g id="line2d_64">
      <g>
       <use style="stroke:#000000;stroke-width:0.5;" x="266.255479681" xlink:href="#m5a7d422ac3" y="7.2"/>
      </g>
     </g>
    </g>
    <g id="xtick_16">
     <g id="line2d_65">
      <g>
       <use style="stroke:#000000;stroke-width:0.5;" x="322.199479681" xlink:href="#mc7db9fdffb" y="140.76"/>
      </g>
     </g>
     <g id="line2d_66">
      <g>
       <use style="stroke:#000000;stroke-width:0.5;" x="322.199479681" xlink:href="#m5a7d422ac3" y="7.2"/>
      </g>
     </g>
    </g>
    <g id="xtick_17">
     <g id="line2d_67">
      <g>
       <use style="stroke:#000000;stroke-width:0.5;" x="378.143479681" xlink:href="#mc7db9fdffb" y="140.76"/>
      </g>
     </g>
     <g id="line2d_68">
      <g>
       <use style="stroke:#000000;stroke-width:0.5;" x="378.143479681" xlink:href="#m5a7d422ac3" y="7.2"/>
      </g>
     </g>
    </g>
    <g id="xtick_18">
     <g id="line2d_69">
      <g>
       <use style="stroke:#000000;stroke-width:0.5;" x="434.087479681" xlink:href="#mc7db9fdffb" y="140.76"/>
      </g>
     </g>
     <g id="line2d_70">
      <g>
       <use style="stroke:#000000;stroke-width:0.5;" x="434.087479681" xlink:href="#m5a7d422ac3" y="7.2"/>
      </g>
     </g>
    </g>
    <g id="xtick_19">
     <g id="line2d_71">
      <g>
       <use style="stroke:#000000;stroke-width:0.5;" x="490.031479681" xlink:href="#mc7db9fdffb" y="140.76"/>
      </g>
     </g>
     <g id="line2d_72">
      <g>
       <use style="stroke:#000000;stroke-width:0.5;" x="490.031479681" xlink:href="#m5a7d422ac3" y="7.2"/>
      </g>
     </g>
    </g>
   </g>
   <g id="matplotlib.axis_6">
    <g id="ytick_15">
     <g id="line2d_73">
      <g>
       <use style="stroke:#000000;stroke-width:0.5;" x="210.311479681" xlink:href="#md7965d1ba0" y="140.76"/>
      </g>
     </g>
     <g id="line2d_74">
      <g>
       <use style="stroke:#000000;stroke-width:0.5;" x="490.031479681" xlink:href="#md9a1c1a7cd" y="140.76"/>
      </g>
     </g>
     <g id="text_28">
      <!-- $0.00$ -->
      <g transform="translate(185.500847676 143.74580488)scale(0.12 -0.12)">
       <use transform="scale(0.9962640099626402)" xlink:href="#CMR17-48"/>
       <use transform="translate(45.69047711706103 0.0)scale(0.9962640099626402)" xlink:href="#CMMI12-58"/>
       <use transform="translate(72.78765420688046 0.0)scale(0.9962640099626402)" xlink:href="#CMR17-48"/>
       <use transform="translate(118.47813132394148 0.0)scale(0.9962640099626402)" xlink:href="#CMR17-48"/>
      </g>
     </g>
    </g>
    <g id="ytick_16">
     <g id="line2d_75">
      <g>
       <use style="stroke:#000000;stroke-width:0.5;" x="210.311479681" xlink:href="#md7965d1ba0" y="122.578137937"/>
      </g>
     </g>
     <g id="line2d_76">
      <g>
       <use style="stroke:#000000;stroke-width:0.5;" x="490.031479681" xlink:href="#md9a1c1a7cd" y="122.578137937"/>
      </g>
     </g>
     <g id="text_29">
      <!-- $0.01$ -->
      <g transform="translate(185.500847676 125.563942816)scale(0.12 -0.12)">
       <use transform="scale(0.9962640099626402)" xlink:href="#CMR17-48"/>
       <use transform="translate(45.69047711706103 0.0)scale(0.9962640099626402)" xlink:href="#CMMI12-58"/>
       <use transform="translate(72.78765420688046 0.0)scale(0.9962640099626402)" xlink:href="#CMR17-48"/>
       <use transform="translate(118.47813132394148 0.0)scale(0.9962640099626402)" xlink:href="#CMR17-49"/>
      </g>
     </g>
    </g>
    <g id="ytick_17">
     <g id="line2d_77">
      <g>
       <use style="stroke:#000000;stroke-width:0.5;" x="210.311479681" xlink:href="#md7965d1ba0" y="104.396275873"/>
      </g>
     </g>
     <g id="line2d_78">
      <g>
       <use style="stroke:#000000;stroke-width:0.5;" x="490.031479681" xlink:href="#md9a1c1a7cd" y="104.396275873"/>
      </g>
     </g>
     <g id="text_30">
      <!-- $0.02$ -->
      <g transform="translate(185.500847676 107.382080753)scale(0.12 -0.12)">
       <use transform="scale(0.9962640099626402)" xlink:href="#CMR17-48"/>
       <use transform="translate(45.69047711706103 0.0)scale(0.9962640099626402)" xlink:href="#CMMI12-58"/>
       <use transform="translate(72.78765420688046 0.0)scale(0.9962640099626402)" xlink:href="#CMR17-48"/>
       <use transform="translate(118.47813132394148 0.0)scale(0.9962640099626402)" xlink:href="#CMR17-50"/>
      </g>
     </g>
    </g>
    <g id="ytick_18">
     <g id="line2d_79">
      <g>
       <use style="stroke:#000000;stroke-width:0.5;" x="210.311479681" xlink:href="#md7965d1ba0" y="86.2144138098"/>
      </g>
     </g>
     <g id="line2d_80">
      <g>
       <use style="stroke:#000000;stroke-width:0.5;" x="490.031479681" xlink:href="#md9a1c1a7cd" y="86.2144138098"/>
      </g>
     </g>
     <g id="text_31">
      <!-- $0.03$ -->
      <g transform="translate(185.500847676 89.2002186895)scale(0.12 -0.12)">
       <use transform="scale(0.9962640099626402)" xlink:href="#CMR17-48"/>
       <use transform="translate(45.69047711706103 0.0)scale(0.9962640099626402)" xlink:href="#CMMI12-58"/>
       <use transform="translate(72.78765420688046 0.0)scale(0.9962640099626402)" xlink:href="#CMR17-48"/>
       <use transform="translate(118.47813132394148 0.0)scale(0.9962640099626402)" xlink:href="#CMR17-51"/>
      </g>
     </g>
    </g>
    <g id="ytick_19">
     <g id="line2d_81">
      <g>
       <use style="stroke:#000000;stroke-width:0.5;" x="210.311479681" xlink:href="#md7965d1ba0" y="68.0325517464"/>
      </g>
     </g>
     <g id="line2d_82">
      <g>
       <use style="stroke:#000000;stroke-width:0.5;" x="490.031479681" xlink:href="#md9a1c1a7cd" y="68.0325517464"/>
      </g>
     </g>
     <g id="text_32">
      <!-- $0.04$ -->
      <g transform="translate(185.500847676 71.0183566261)scale(0.12 -0.12)">
       <use transform="scale(0.9962640099626402)" xlink:href="#CMR17-48"/>
       <use transform="translate(45.69047711706103 0.0)scale(0.9962640099626402)" xlink:href="#CMMI12-58"/>
       <use transform="translate(72.78765420688046 0.0)scale(0.9962640099626402)" xlink:href="#CMR17-48"/>
       <use transform="translate(118.47813132394148 0.0)scale(0.9962640099626402)" xlink:href="#CMR17-52"/>
      </g>
     </g>
    </g>
    <g id="ytick_20">
     <g id="line2d_83">
      <g>
       <use style="stroke:#000000;stroke-width:0.5;" x="210.311479681" xlink:href="#md7965d1ba0" y="49.850689683"/>
      </g>
     </g>
     <g id="line2d_84">
      <g>
       <use style="stroke:#000000;stroke-width:0.5;" x="490.031479681" xlink:href="#md9a1c1a7cd" y="49.850689683"/>
      </g>
     </g>
     <g id="text_33">
      <!-- $0.05$ -->
      <g transform="translate(185.500847676 52.8364945627)scale(0.12 -0.12)">
       <use transform="scale(0.9962640099626402)" xlink:href="#CMR17-48"/>
       <use transform="translate(45.69047711706103 0.0)scale(0.9962640099626402)" xlink:href="#CMMI12-58"/>
       <use transform="translate(72.78765420688046 0.0)scale(0.9962640099626402)" xlink:href="#CMR17-48"/>
       <use transform="translate(118.47813132394148 0.0)scale(0.9962640099626402)" xlink:href="#CMR17-53"/>
      </g>
     </g>
    </g>
    <g id="ytick_21">
     <g id="line2d_85">
      <g>
       <use style="stroke:#000000;stroke-width:0.5;" x="210.311479681" xlink:href="#md7965d1ba0" y="31.6688276197"/>
      </g>
     </g>
     <g id="line2d_86">
      <g>
       <use style="stroke:#000000;stroke-width:0.5;" x="490.031479681" xlink:href="#md9a1c1a7cd" y="31.6688276197"/>
      </g>
     </g>
     <g id="text_34">
      <!-- $0.06$ -->
      <g transform="translate(185.500847676 34.6546324993)scale(0.12 -0.12)">
       <use transform="scale(0.9962640099626402)" xlink:href="#CMR17-48"/>
       <use transform="translate(45.69047711706103 0.0)scale(0.9962640099626402)" xlink:href="#CMMI12-58"/>
       <use transform="translate(72.78765420688046 0.0)scale(0.9962640099626402)" xlink:href="#CMR17-48"/>
       <use transform="translate(118.47813132394148 0.0)scale(0.9962640099626402)" xlink:href="#CMR17-54"/>
      </g>
     </g>
    </g>
    <g id="ytick_22">
     <g id="line2d_87">
      <g>
       <use style="stroke:#000000;stroke-width:0.5;" x="210.311479681" xlink:href="#md7965d1ba0" y="13.4869655563"/>
      </g>
     </g>
     <g id="line2d_88">
      <g>
       <use style="stroke:#000000;stroke-width:0.5;" x="490.031479681" xlink:href="#md9a1c1a7cd" y="13.4869655563"/>
      </g>
     </g>
     <g id="text_35">
      <!-- $0.07$ -->
      <defs>
       <path d="
M45.0938 61.5781
L45.0938 63.7656
L21.5938 63.7656
C9.90625 63.7656 9.70312 65.0781 9.29688 67
L7.5 67
L4.59375 48.3438
L6.40625 48.3438
C6.70312 50.2344 7.40625 55.3125 8.59375 57.2031
C9.20312 58 16.5938 58 18.2969 58
L40.2969 58
L29.2031 41.5781
C21.7969 30.5312 16.7031 15.6094 16.7031 2.57812
C16.7031 1.39062 16.7031 -2 20.2969 -2
C23.9062 -2 23.9062 1.39062 23.9062 2.67188
L23.9062 7.26562
C23.9062 23.5625 26.7031 34.3125 31.2969 41.1875
z
" id="CMR17-55"/>
      </defs>
      <g transform="translate(185.500847676 16.4727704359)scale(0.12 -0.12)">
       <use transform="scale(0.9962640099626402)" xlink:href="#CMR17-48"/>
       <use transform="translate(45.69047711706103 0.0)scale(0.9962640099626402)" xlink:href="#CMMI12-58"/>
       <use transform="translate(72.78765420688046 0.0)scale(0.9962640099626402)" xlink:href="#CMR17-48"/>
       <use transform="translate(118.47813132394148 0.0)scale(0.9962640099626402)" xlink:href="#CMR17-55"/>
      </g>
     </g>
    </g>
   </g>
   <g id="text_36">
    <!-- $e^{\mu}$ -->
    <g transform="translate(284.059623894 134.57725303)scale(0.12 -0.12)">
     <use transform="scale(0.9962640099626402)" xlink:href="#CMMI12-101"/>
     <use transform="translate(45.21200101669521 36.15363894185866)scale(0.6973817666173724)" xlink:href="#CMMI12-22"/>
    </g>
   </g>
   <g id="text_37">
    <!-- $e^{\mu+\frac{1}{2}\sigma^2}$ -->
    <defs>
     <path d="
M37.7031 23
L64.2031 23
C65.5938 23 67.2969 23 67.2969 24.6875
C67.2969 26.4844 65.7031 26.4844 64.2031 26.4844
L37.7031 26.4844
L37.7031 52.9062
C37.7031 54.2969 37.7031 56 36 56
C34.2031 56 34.2031 54.4062 34.2031 52.9062
L34.2031 26.4844
L7.70312 26.4844
C6.29688 26.4844 4.59375 26.4844 4.59375 24.7969
C4.59375 23 6.20312 23 7.70312 23
L34.2031 23
L34.2031 -3.40625
C34.2031 -4.79688 34.2031 -6.5 35.9062 -6.5
C37.7031 -6.5 37.7031 -4.90625 37.7031 -3.40625
z
" id="CMR17-43"/>
    </defs>
    <g transform="translate(309.762293081 134.57725303)scale(0.12 -0.12)">
     <use transform="scale(0.9962640099626402)" xlink:href="#CMMI12-101"/>
     <use transform="translate(45.21200101669521 36.15363894185866)scale(0.6973817666173724)" xlink:href="#CMMI12-22"/>
     <use transform="translate(86.29580601066314 36.15363894185866)scale(0.6973817666173724)" xlink:href="#CMR17-43"/>
     <use transform="translate(137.69145124727586 63.61178235425748)scale(0.4981320049813201)" xlink:href="#CMR17-49"/>
     <use transform="translate(137.69145124727586 12.105072895586863)scale(0.4981320049813201)" xlink:href="#CMR17-50"/>
     <use transform="translate(161.73220357740507 36.15363894185866)scale(0.6973817666173724)" xlink:href="#CMMI12-27"/>
     <use transform="translate(203.04604194232567 61.46106458690069)scale(0.4981320049813201)" xlink:href="#CMR17-50"/>
     <path d="
M137.691 52.1935
L160.537 52.1935
L160.537 54.9829
L137.691 54.9829
L137.691 52.1935
z
"/>
    </g>
   </g>
   <g id="text_38">
    <!-- $f_X(x)$ -->
    <defs>
     <path d="
M47.5 40.5625
L38.0938 62.4062
C39.4062 64.7969 42.4062 65.1875 43.5938 65.2969
C44.2031 65.2969 45.2969 65.2969 45.2969 67.0625
C45.2969 68.1875 44.4062 68.1875 43.7969 68.1875
C42.0938 68.1875 40.0938 68.1875 38.4062 68.1875
L32.5938 68.1875
C26.5 68.1875 22.0938 68.1875 22 68.1875
C21.2031 68.1875 20.2031 68.1875 20.2031 66.2969
C20.2031 65.2969 21.0938 65.2969 22.4062 65.2969
C28.2031 65.2969 28.5938 64.2969 29.5938 61.9062
L41.5 34.1406
L19.7969 10.8281
C16.2031 6.90625 11.9062 3.09375 4.5 3.09375
C3.29688 3 2.5 3 2.5 1.0625
C2.5 0.75 2.59375 0 3.70312 0
C5.09375 0 6.59375 0 8 0
L12.7031 0
C15.9062 0 19.4062 0 22.5 0
C23.2031 0 24.4062 0 24.4062 1.79688
C24.4062 2.79688 23.7031 2.89062 23.0938 2.89062
C21.0938 3.09375 19.7969 4.1875 19.7969 5.78125
C19.7969 7.48438 21 8.70312 23.9062 11.6875
L32.7969 21.375
C35 23.6719 40.2969 29.4688 42.5 31.6562
L53 7.07812
C53.0938 6.89062 53.5 5.89062 53.5 5.78125
C53.5 4.89062 51.2969 3.09375 48.0938 3.09375
C47.5 3.09375 46.4062 3.09375 46.4062 1.10938
C46.4062 0 47.4062 0 47.9062 0
C49.5938 0 51.5938 0 53.2969 0
L64.2969 0
C66.0938 0 68 0 69.7031 0
C70.4062 0 71.5 0 71.5 2.03125
C71.5 3.09375 70.5 3.09375 69.5938 3.09375
C63.5938 3.09375 63.4062 3.59375 61.7031 7.26562
L48.5 38.1406
L61.2031 51.8125
C62.2031 52.8281 64.5 55.3438 65.4062 56.3438
C69.7031 60.875 73.7031 65 81.7969 65
C82.7969 65.2969 83.7969 65.2969 83.7969 67.0625
C83.7969 68.1875 82.9062 68.1875 82.5 68.1875
C81.0938 68.1875 79.5938 68.1875 78.2031 68.1875
L73.5938 68.1875
C70.4062 68.1875 66.9062 68.1875 63.7969 68.1875
C63.0938 68.1875 61.9062 68.1875 61.9062 66.3906
C61.9062 65.3906 62.5938 65.2969 63.2031 65.2969
C64.7969 65.1094 66.5 64.3125 66.5 62.4062
L66.4062 62.2188
C66.2969 61.5156 66.0938 60.5156 65 59.3281
z
" id="CMMI12-88"/>
    </defs>
    <g transform="translate(215.905879681 23.9872095025)scale(0.12 -0.12)">
     <use transform="translate(0.0 14.943914544092468)scale(0.9962640099626402)" xlink:href="#CMMI12-102"/>
     <use transform="translate(48.083237663449566 0.0)scale(0.6973817666173724)" xlink:href="#CMMI12-88"/>
     <use transform="translate(110.7358787603129 14.943914544092468)scale(0.9962640099626402)" xlink:href="#CMR17-40"/>
     <use transform="translate(146.01664655977586 14.943914544092468)scale(0.9962640099626402)" xlink:href="#CMMI12-120"/>
     <use transform="translate(201.45070609238795 14.943914544092468)scale(0.9962640099626402)" xlink:href="#CMR17-41"/>
    </g>
   </g>
   <g id="text_39">
    <!-- $x$ -->
    <g transform="translate(458.733436109 131.535625443)scale(0.12 -0.12)">
     <use transform="scale(0.9962640099626402)" xlink:href="#CMMI12-120"/>
    </g>
   </g>
   <g id="text_40">
    <!-- \framebox{$X\sim \ln\mathcal{N}(\mu,\sigma^2)$} -->
    <defs>
     <path d="
M15.2969 68.6875
L3.40625 67.5938
L3.40625 65
C9.29688 65 10.2031 64.4062 10.2031 59.6406
L10.2031 6.65625
C10.2031 2.875 9.79688 2.39062 3.40625 2.39062
L3.40625 -0.203125
C5.79688 0 10.2031 0 12.7031 0
C15.2969 0 19.7031 0 22.0938 -0.203125
L22.0938 2.39062
C15.7031 2.39062 15.2969 2.78125 15.2969 6.65625
z
" id="CMR17-108"/>
     <path d="
M41.5 30.2031
C41.5 35.2969 40.5 43.5938 28.7031 43.5938
C20.7969 43.5938 16.7031 37.5 15.2031 33.5
L15.0938 33.5
L15.0938 43.5938
L3.29688 42.5
L3.29688 39.9062
C9.20312 39.9062 10.0938 39.2969 10.0938 34.5
L10.0938 6.6875
C10.0938 2.875 9.70312 2.39062 3.29688 2.39062
L3.29688 -0.203125
C5.70312 0 10.0938 0 12.7031 0
C15.2969 0 19.7969 0 22.2031 -0.203125
L22.2031 2.39062
C15.7969 2.39062 15.4062 2.78125 15.4062 6.6875
L15.4062 25.9062
C15.4062 35.1094 21 42 28 42
C35.4062 42 36.2031 35.4062 36.2031 30.5938
L36.2031 6.6875
C36.2031 2.875 35.7969 2.39062 29.4062 2.39062
L29.4062 -0.203125
C31.7969 0 36.2031 0 38.7969 0
C41.4062 0 45.9062 0 48.2969 -0.203125
L48.2969 2.39062
C41.9062 2.39062 41.5 2.78125 41.5 6.6875
z
" id="CMR17-110"/>
    </defs>
    <g transform="translate(361.168172099 40.9846824579)scale(0.12 -0.12)">
     <use transform="translate(3.387291553160025 28.210555631226654)scale(0.9962640099626402)" xlink:href="#CMMI12-88"/>
     <use transform="translate(119.85386222563824 28.210555631226654)scale(0.9962640099626402)" xlink:href="#CMSY10-24"/>
     <use transform="translate(225.01533859842002 28.210555631226654)scale(0.9962640099626402)" xlink:href="#CMR17-108"/>
     <use transform="translate(249.8863970802849 28.210555631226654)scale(0.9962640099626402)" xlink:href="#CMR17-110"/>
     <use transform="translate(317.3861720939057 28.210555631226654)scale(0.9962640099626402)" xlink:href="#CMSY10-78"/>
     <use transform="translate(413.8096335519147 28.210555631226654)scale(0.9962640099626402)" xlink:href="#CMR17-40"/>
     <use transform="translate(449.0904013513777 28.210555631226654)scale(0.9962640099626402)" xlink:href="#CMMI12-22"/>
     <use transform="translate(507.7818228031601 28.210555631226654)scale(0.9962640099626402)" xlink:href="#CMMI12-59"/>
     <use transform="translate(551.4834051262843 28.210555631226654)scale(0.9962640099626402)" xlink:href="#CMMI12-27"/>
     <use transform="translate(610.5034587095269 64.36419457308531)scale(0.6973817666173724)" xlink:href="#CMR17-50"/>
     <use transform="translate(642.9847726786271 28.210555631226654)scale(0.9962640099626402)" xlink:href="#CMR17-41"/>
     <path d="
M0 112.307
L681.653 112.307
L681.653 112.705
L0 112.705
L0 112.307
z
"/>
     <path d="
M0 0.3985
L0.3985 0.3985
L0.3985 112.307
L0 112.307
L0 0.3985
z
"/>
     <path d="
M681.254 0.3985
L681.653 0.3985
L681.653 112.307
L681.254 112.307
L681.254 0.3985
z
"/>
     <path d="
M0 0
L681.653 0
L681.653 0.3985
L0 0.3985
L0 0
z
"/>
    </g>
   </g>
   <g id="text_41">
    <g id="patch_21">
     <path d="
M289.606 41.8896
L318.729 41.8896
L318.729 25.9344
L289.606 25.9344
z
" style="fill:#ffffff;"/>
    </g>
    <!-- $\mathrm{E}[X]$ -->
    <defs>
     <path d="
M23.5 -25
L23.5 -21.5156
L14.0938 -21.5156
L14.0938 71
L23.5 71
L23.5 74.4844
L10.5938 74.4844
L10.5938 -25
z
" id="CMR17-91"/>
     <path d="
M14.2969 74.4844
L1.40625 74.4844
L1.40625 71
L10.7969 71
L10.7969 -21.5156
L1.40625 -21.5156
L1.40625 -25
L14.2969 -25
z
" id="CMR17-93"/>
     <path d="
M60.7031 25.2344
L58.9062 25.2344
C56.7031 10.5625 55.4062 2.59375 37.7969 2.59375
L23.9062 2.59375
C19.9062 2.59375 19.7031 3.07812 19.7031 6.46875
L19.7031 34
L29.0938 34
C38.5 34 39.4062 30.625 39.4062 22.3438
L41.2031 22.3438
L41.2031 48.1406
L39.4062 48.1406
C39.4062 39.9531 38.5 36.5938 29.0938 36.5938
L19.7031 36.5938
L19.7031 61.1406
C19.7031 64.5 19.9062 65 23.9062 65
L37.5938 65
C53.0938 65 54.9062 58.8906 56.2969 45.7656
L58.0938 45.7656
L55.7031 67.5781
L5.09375 67.5781
L5.09375 65
C12 65 13.0938 65 13.0938 60.5312
L13.0938 7.04688
C13.0938 2.59375 12 2.59375 5.09375 2.59375
L5.09375 0
L57.0938 0
z
" id="CMR17-69"/>
    </defs>
    <g transform="translate(291.606432275 36.9007920299)scale(0.12 -0.12)">
     <use transform="scale(0.9962640099626402)" xlink:href="#CMR17-69"/>
     <use transform="translate(62.586300518563206 0.0)scale(0.9962640099626402)" xlink:href="#CMR17-91"/>
     <use transform="translate(87.45735900042808 0.0)scale(0.9962640099626402)" xlink:href="#CMMI12-88"/>
     <use transform="translate(176.24992095073165 0.0)scale(0.9962640099626402)" xlink:href="#CMR17-93"/>
    </g>
   </g>
  </g>
 </g>
 <defs>
  <clipPath id="p4f19af1170">
   <rect height="204.12" width="178.92" x="26.3514796807" y="145.8"/>
  </clipPath>
  <clipPath id="p49928919b5">
   <rect height="133.56" width="279.72" x="210.311479681" y="7.2"/>
  </clipPath>
  <clipPath id="p3d569bb202">
   <rect height="204.12" width="279.72" x="210.311479681" y="145.8"/>
  </clipPath>
 </defs>
</svg>
